<?xml version="1.0" encoding="utf-8"?>
<!-- Generator: Adobe Illustrator 19.2.0, SVG Export Plug-In . SVG Version: 6.00 Build 0)  -->
<svg version="1.1" id="Layer_1" xmlns="http://www.w3.org/2000/svg" xmlns:xlink="http://www.w3.org/1999/xlink" x="0px" y="0px"
	 viewBox="0 0 728.7 91.6" style="enable-background:new 0 0 728.7 91.6;" xml:space="preserve">
<style type="text/css">
	.st0{fill:none;stroke:#000000;stroke-width:2.1825;stroke-linecap:round;stroke-dasharray:6.614,4.4315;}
	.st1{fill:none;stroke:#000000;stroke-width:2.1825;stroke-linecap:round;stroke-dasharray:6.4245,4.242;}
	.st2{fill:none;stroke:#000000;stroke-width:2.1825;stroke-linecap:round;stroke-dasharray:6.6148,4.4323;}
	.st3{fill:none;stroke:#000000;stroke-width:2.1825;stroke-linecap:round;stroke-dasharray:6.6928,4.5103;}
	.st4{fill:none;stroke:#000000;stroke-width:2.1825;stroke-linecap:round;}
	.text{
	  fill: #ffffff; stroke:#ffffff;
	}
</style>
<g>
	<path class="text" d="M11.2,2.2c0,0.2-0.1,0.4-0.2,0.6s-0.3,0.3-0.5,0.3c-0.1,0-0.3,0-0.4,0.1C10,3.3,9.8,3.3,9.7,3.3H9.6H9.5H9.4H9.3
		c-0.2,0-0.4,0-0.6,0c-0.2,0-0.4,0-0.6,0H7H6.9c0,0,0,0-0.1,0H6.7H6.6H6.2C6,3.6,5.8,3.9,5.7,4.2C5.6,4.5,5.5,4.8,5.4,5.1
		C5.3,5.4,5.3,5.7,5.2,6C5.1,6.3,5,6.6,4.9,6.9c-0.1,0.3-0.2,0.7-0.2,1c0,0.4-0.1,0.7-0.2,1.1C4.4,9.3,4.4,9.5,4.3,9.7
		s-0.1,0.5-0.1,0.7v0.1c0,0,0,0,0,0.1c0,0.2,0,0.3-0.1,0.4C4,11.1,4,11.2,3.9,11.4c-0.1,0.5-0.2,1-0.3,1.5s-0.1,1-0.1,1.5v0.1
		c0,0,0,0,0,0.1s0,0.1,0,0.1v0.1c0,0.2,0,0.4-0.1,0.7c0,0.2-0.1,0.4-0.3,0.6L3,16.2c-0.1,0-0.1,0-0.1,0.1c-0.1,0.1-0.2,0.1-0.3,0.1
		s-0.2,0.1-0.3,0.1c-0.2,0-0.3-0.1-0.4-0.2c-0.1-0.1-0.1-0.3-0.2-0.4c-0.1-0.1-0.1-0.2-0.2-0.4c-0.1-0.1-0.1-0.2-0.1-0.4
		c0-0.1,0-0.2,0.1-0.3c0-0.1,0.1-0.2,0.1-0.3c0-0.3,0-0.5,0.1-0.7s0.1-0.4,0.2-0.7C2,12.7,2.1,12.4,2.1,12c0.1-0.4,0.1-0.7,0.2-1.1
		c0.1-0.3,0.2-0.6,0.3-0.9s0.2-0.6,0.2-0.9c0-0.3,0.1-0.6,0.2-0.9c0.1-0.3,0.2-0.6,0.2-0.9C3.3,6.9,3.4,6.5,3.4,6
		c0.1-0.4,0.1-0.8,0.3-1.2c0.1-0.2,0.1-0.4,0.2-0.5C4,4.1,4,4,4,3.7c0-0.1,0-0.1-0.1-0.1s-0.1,0-0.2,0c-0.1,0-0.3,0-0.4,0
		c-0.1,0-0.2,0-0.4,0S2.6,3.7,2.5,3.7c-0.1,0-0.2,0.1-0.3,0.1S2,3.8,1.9,3.9c-0.1,0-0.3,0-0.5,0c-0.1,0-0.2,0-0.2-0.1S1.1,3.7,1,3.6
		c0-0.1-0.1-0.1-0.2-0.2S0.7,3.3,0.6,3.2V3.1c0,0,0,0,0-0.1s0-0.1-0.1-0.2c-0.1,0-0.1-0.1-0.1-0.2c0-0.3,0.1-0.5,0.3-0.8
		c0.2-0.2,0.4-0.3,0.7-0.3c0.1,0,0.1,0,0.1,0.1s0.1,0.1,0.1,0.1h0.1h0.1c0.1,0,0.2,0,0.3,0.1c0.1,0,0.2,0.1,0.3,0.1s0.2,0,0.3,0
		s0.2,0,0.3,0s0.2,0,0.2,0s0.1,0,0.2,0c0.1,0,0.2,0,0.3,0s0.2,0,0.3,0s0.1,0,0.2,0c0.1,0,0.1,0,0.2,0c0.1,0,0.2,0,0.3-0.1
		s0.1-0.2,0.2-0.3C5,1.4,5,1.3,5.1,1.2c0.1-0.1,0.2-0.1,0.3-0.1h0.7c0.1,0,0.2,0,0.2,0.1c0.1,0.1,0.1,0.1,0.2,0.2
		c0.1,0,0.1,0.1,0.2,0.1c0.1,0,0.1,0.1,0.1,0.2c0,0.1,0.1,0.1,0.2,0.2s0.2,0,0.3,0C7.5,1.9,7.8,2,8,2c0.3,0,0.5,0,0.7,0
		c0.1,0,0.1,0,0.2,0C9,2,9,2,9.1,2h0.1h0.1h0.1h0.1c0.1,0,0.2,0,0.3,0s0.2,0,0.3,0c0.2,0,0.5,0.1,0.7,0.2
		C11.1,1.7,11.2,1.9,11.2,2.2z"/>
	<path class="text" d="M23.8,7.9c0,0.2-0.2,0.4-0.5,0.6c-0.3,0.1-0.7,0.2-1,0.3S21.6,9,21.2,9c-0.3,0-0.5,0.1-0.5,0.1c-0.1,0.1-0.1,0.1-0.1,0.2
		c0,0.1,0,0.1,0,0.2c0,0.2,0,0.4,0,0.6c0,0.2,0,0.4,0,0.6c0,0.4,0,0.7-0.1,1s-0.1,0.7-0.1,1c0,0.1,0,0.1,0,0.2c0,0.1,0,0.1,0,0.2
		c0,0.1,0,0.1,0,0.1s0,0.1-0.1,0.1c0,0.2-0.1,0.5-0.1,0.7s0,0.4,0,0.7v0.1v0.1c0,0.3,0,0.6,0,0.9c0,0.3,0,0.6,0,0.9
		c0,0.1,0,0.3-0.1,0.4c-0.1,0.2-0.2,0.3-0.3,0.3s-0.1,0-0.1,0.1s0,0.1-0.1,0.1s-0.1,0-0.2-0.1c-0.1,0-0.1-0.1-0.2-0.1
		c-0.1,0-0.2,0-0.3-0.1s-0.1-0.2-0.2-0.3s-0.1-0.2-0.1-0.4c0-0.1,0-0.2,0-0.3s0-0.2-0.1-0.2c0-0.1-0.1-0.1-0.1-0.2
		c0-0.1,0-0.1,0-0.2c0-0.1,0-0.1,0-0.2v-0.1v-0.1c0-0.1,0-0.1,0-0.2c0-0.1,0-0.1,0-0.2v-0.1v-0.1c0-0.1,0-0.1,0-0.2
		c0-0.1,0-0.1,0-0.2v-0.1v-0.1c0-0.2,0-0.4,0.1-0.5s0.1-0.3,0.1-0.5s0.1-0.4,0.1-0.6s0-0.4,0-0.6c0-0.3,0-0.5,0.1-0.8
		s0.1-0.5,0.1-0.8v-0.1v-0.1c0-0.1,0-0.3,0.1-0.4c0-0.1,0.1-0.3,0.1-0.4H19c-0.1,0-0.3,0-0.5,0.1c-0.2,0-0.5,0.1-0.8,0.1
		c-0.3,0.1-0.5,0.1-0.7,0.2c-0.2,0.1-0.4,0.1-0.5,0.1c-0.2,0.1-0.3,0.1-0.4,0.2s-0.3,0.1-0.4,0.1c-0.1,0-0.3,0-0.4,0
		c-0.1,0-0.2,0.1-0.3,0.2c-0.1,0.1-0.1,0.2-0.1,0.3s0,0.2,0,0.4c-0.1,0.4-0.2,0.9-0.3,1.3c-0.1,0.4-0.1,0.9-0.1,1.4
		c0,0.1,0,0.2-0.1,0.3c0,0.1-0.1,0.2-0.1,0.3c0,0.2,0,0.5,0,0.7s0,0.5,0,0.7h0.1l0,0c0.1,0,0.1,0,0.2-0.1s0.1-0.1,0.1-0.2
		c0-0.1,0.1-0.1,0.1-0.2c0-0.1,0.1-0.1,0.2-0.1c0.1,0,0.1,0,0.1,0.1s0,0.1,0,0.1s0,0.1,0.1,0.1l0.1,0.1v0.1v0.1c0,0.1,0,0.1,0,0.1
		v0.1c0,0.1,0,0.1-0.1,0.2c0,0.1-0.1,0.1-0.1,0.2s0,0.2,0.1,0.2c0.1,0.1,0.1,0.1,0.1,0.2c0,0.1,0,0.2-0.1,0.4s-0.2,0.3-0.3,0.5
		s-0.2,0.3-0.4,0.4c-0.1,0.1-0.2,0.2-0.3,0.2c-0.4,0-0.6-0.1-0.8-0.3s-0.4-0.5-0.5-0.8s-0.2-0.7-0.2-1c0-0.4-0.1-0.7-0.1-0.9
		s0-0.3,0-0.5s0-0.3,0.1-0.5c0-0.1,0-0.3,0-0.4c0-0.1,0-0.3,0-0.4c0-0.5,0.1-1,0.2-1.4c0.2-0.4,0.2-0.9,0.2-1.4c0-0.1,0-0.2-0.1-0.3
		c-0.1,0-0.2-0.1-0.3-0.2c-0.1-0.1-0.1-0.1-0.1-0.2s0-0.1,0-0.2c-0.1-0.1-0.1-0.2-0.2-0.2c-0.1-0.1-0.1-0.1-0.1-0.3
		c0-0.1,0-0.3,0.1-0.5s0.2-0.4,0.3-0.4s0.1,0,0.2,0s0.2,0,0.3,0s0.2,0,0.2-0.1c0.1,0,0.1-0.1,0.1-0.2c0-0.2,0-0.4,0.1-0.5
		c0.1-0.2,0.1-0.3,0.2-0.5c0-0.3,0.1-0.7,0.1-1s0.1-0.6,0.2-1c0-0.2,0.1-0.4,0.2-0.6c0.1-0.2,0.1-0.4,0.1-0.7s0-0.6,0.1-0.9
		s0.1-0.6,0.1-0.9c0-0.1,0-0.2-0.1-0.2c0-0.1-0.1-0.2-0.1-0.2V1.4V1.3c0-0.1,0-0.2,0-0.2c0-0.1,0-0.1,0-0.2c0-0.2,0.1-0.4,0.3-0.6
		C14.9,0.1,15.1,0,15.3,0c0.1,0,0.1,0,0.2,0.1c0.1,0.1,0.2,0.1,0.3,0.2c0.1,0.1,0.2,0.1,0.3,0.2c0.1,0.1,0.2,0.1,0.2,0.2
		c0,0.1,0.1,0.1,0.1,0.2s0,0.1,0.1,0.2c0,0.1,0.1,0.2,0.1,0.2c0,0.1,0.1,0.1,0.1,0.2c0,0.2-0.1,0.4-0.2,0.6s-0.2,0.4-0.2,0.7
		c0,0.2,0,0.4-0.1,0.6c-0.1,0.2-0.1,0.4-0.1,0.6c0,0.4-0.1,0.8-0.2,1.1c-0.1,0.4-0.2,0.7-0.2,1.1c0,0.2,0,0.5-0.1,0.7
		s-0.1,0.5-0.1,0.7c0,0.1,0,0.2-0.1,0.2c-0.1,0.1-0.1,0.1-0.1,0.2c0,0.1,0,0.1,0.1,0.2c0,0.1,0.1,0.1,0.2,0.1c0.1,0,0.2,0,0.3-0.1
		s0.2-0.1,0.3-0.1h0.1h0.1c0.1,0,0.2,0,0.2-0.1c0.1-0.1,0.2-0.1,0.2-0.1c0.2,0,0.3-0.1,0.5-0.1s0.3,0,0.5-0.1s0.5-0.1,0.6-0.2
		c0.2-0.1,0.4-0.1,0.7-0.1c0.2,0,0.3-0.1,0.3-0.2c0-0.1,0.1-0.3,0.1-0.4c0-0.1,0-0.2,0-0.3s0-0.2,0-0.3s0-0.2,0.1-0.2
		c0-0.1,0.1-0.1,0.1-0.2c0-0.1,0-0.1,0-0.1V5.6V5.5V5.4c0-0.1,0-0.1,0-0.2c0-0.1,0-0.1,0-0.2c0-0.1,0-0.3,0.1-0.4
		c0-0.1,0.1-0.3,0.1-0.4V2.4c0-0.1,0-0.3,0-0.4s0-0.3,0-0.4c0-0.2,0.1-0.4,0.3-0.5S20.6,1,20.8,1c0.1,0,0.1,0,0.2,0
		c0.1,0,0.1,0,0.2,0c0,0,0.1,0.1,0.2,0.2s0.2,0.2,0.3,0.4C21.8,1.7,21.9,1.9,22,2c0.1,0.1,0.1,0.2,0.1,0.2c0,0.3-0.1,0.5-0.2,0.8
		c-0.1,0.2-0.2,0.5-0.2,0.8c0,0.1,0,0.2,0,0.2c0,0.1,0,0.2,0,0.2c0,0.1,0,0.2-0.1,0.3c0,0.1-0.1,0.2-0.1,0.3c0,0.2,0,0.4,0,0.6
		c0,0.2,0,0.4,0,0.6c0,0.2,0,0.3-0.1,0.4c0,0.1-0.1,0.3-0.1,0.4c0,0.1,0,0.2,0.1,0.3c0,0.1,0.1,0.1,0.2,0.1c0.3,0,0.7,0,1-0.1
		s0.7-0.1,1-0.1c0.1,0,0.1,0,0.2,0.1s0.2,0.2,0.3,0.3s0.2,0.2,0.2,0.3C23.7,7.7,23.8,7.8,23.8,7.9z"/>
	<path class="text" d="M38,2c0,0.2,0,0.3-0.1,0.4c-0.1,0.1-0.2,0.1-0.3,0.2c-0.1,0-0.3,0.1-0.4,0.1c-0.1,0-0.3,0-0.4,0c-0.2,0-0.3,0-0.4,0
		c-0.1,0-0.2,0-0.3,0.1c-0.4,0-0.7,0.1-1.1,0.1c-0.4,0-0.7,0.1-1.1,0.1c-0.1,0-0.1,0-0.1,0h-0.1h-0.3c-0.2,0-0.5,0-0.6,0.1
		c-0.2,0.1-0.4,0.2-0.6,0.2c-0.4,0.1-0.8,0.2-1,0.4S30.7,4,30.6,4.3c-0.2,0.2-0.3,0.5-0.4,0.8c-0.1,0.3-0.2,0.6-0.3,1
		c-0.1,0.2-0.1,0.4-0.2,0.5c-0.1,0.1-0.1,0.3-0.1,0.5s-0.1,0.5-0.2,0.7c-0.1,0.2-0.2,0.4-0.2,0.7c0,0.1,0.1,0.2,0.2,0.2
		c0.2,0,0.4,0,0.6-0.1c0.2-0.1,0.4-0.1,0.5-0.2c0.3-0.1,0.6-0.2,0.7-0.2s0.5-0.1,0.8-0.1c0.1,0,0.1,0,0.1,0h0.1
		c0.3-0.1,0.5-0.2,0.7-0.2s0.4-0.1,0.7-0.1s0.5,0.1,0.7,0.3s0.3,0.4,0.3,0.7c0,0.1-0.1,0.2-0.2,0.3c-0.1,0.1-0.2,0.1-0.3,0.2
		c-0.1,0-0.2,0.1-0.2,0.2s-0.1,0.1-0.2,0.2c-0.2,0.1-0.4,0.1-0.5,0.1c-0.2,0-0.3,0-0.5,0.1c-0.4,0.1-0.7,0.2-1,0.3s-0.7,0.2-1,0.3
		s-0.5,0.2-0.8,0.2c-0.3,0.1-0.5,0.2-0.7,0.3c-0.1,0.1-0.2,0.1-0.3,0.2c-0.1,0.1-0.1,0.1-0.2,0.3c-0.1,0.4-0.2,0.9-0.2,1.3
		c0,0.4,0,0.9,0,1.3c0,0.2,0,0.5-0.1,0.6s-0.1,0.4-0.1,0.6c0,0.1,0,0.3,0,0.4c0,0.1,0.1,0.3,0.1,0.4c0.5-0.2,0.9-0.4,1.4-0.7
		c0.4-0.2,0.9-0.5,1.3-0.8c0.3-0.2,0.6-0.4,0.9-0.5c0.3-0.2,0.6-0.3,0.9-0.5c0.2-0.1,0.3-0.2,0.4-0.3c0.1-0.1,0.2-0.2,0.4-0.2h0.1
		c0.1,0,0.2,0,0.3,0.1c0.1,0,0.2,0.1,0.3,0.1s0.2,0,0.3-0.1c0.1,0.1,0.2,0.3,0.3,0.4s0.2,0.3,0.2,0.5v0.1v0.1c0,0.2-0.1,0.3-0.2,0.4
		c-0.1,0.1-0.2,0.2-0.4,0.3s-0.3,0.1-0.5,0.2s-0.3,0.1-0.4,0.2c-0.3,0.2-0.6,0.3-0.9,0.5c-0.3,0.1-0.6,0.3-0.9,0.5
		c-0.4,0.2-0.7,0.5-1.1,0.7s-0.7,0.4-1.1,0.7c-0.2,0.2-0.5,0.3-0.7,0.4c-0.2,0.1-0.5,0.2-0.8,0.2s-0.6-0.1-0.8-0.3s-0.4-0.4-0.5-0.7
		s-0.2-0.6-0.3-0.9c-0.1-0.3-0.1-0.6-0.1-0.8s0-0.4,0-0.7s0-0.5,0.1-0.7v-0.1c0,0,0,0,0-0.1s0-0.1,0-0.2c0-0.1,0-0.1,0-0.2
		c0-0.4,0.1-0.8,0.2-1.1s0.2-0.8,0.2-1.2c0-0.1,0-0.3,0.1-0.4s0.1-0.2,0.1-0.4c0-0.1,0-0.1-0.1-0.1L27,10.4v-0.3
		c0-0.1,0-0.2,0.1-0.3s0.2-0.2,0.2-0.3c0.1-0.2,0.1-0.4,0.2-0.5c0-0.1,0-0.3,0-0.6c0-0.1,0-0.2,0.1-0.3c0-0.1,0.1-0.2,0.1-0.3
		s0.1-0.3,0.1-0.4c0-0.2,0-0.3,0.1-0.4c0.1-0.4,0.2-0.8,0.4-1.3s0.3-0.9,0.3-1.3c0-0.1,0-0.2,0-0.2c0-0.1,0-0.1,0-0.2
		c0-0.1,0-0.2-0.1-0.3c0-0.1-0.1-0.2-0.1-0.3s0.1-0.2,0.2-0.3S28.8,3,28.9,3c0.2-0.1,0.3-0.2,0.4-0.3c0.1-0.1,0.3-0.2,0.4-0.2H30
		h0.1h0.1h0.1h0.1c0.3,0,0.5,0,0.7-0.1s0.5-0.1,0.7-0.2C32,2.1,32.3,2.1,32.5,2c0.2-0.1,0.5-0.1,0.7-0.1s0.3,0,0.5-0.1
		s0.3-0.1,0.5-0.1H35c0.2,0,0.4,0,0.5-0.1s0.4-0.1,0.5-0.1h0.4h0.1h0.1c0.1,0,0.2,0,0.3,0.1c0.1,0,0.2,0,0.3,0c0,0.1,0,0.2,0.1,0.3
		c0.1-0.1,0.1-0.1,0.2-0.1s0.1,0,0.1,0.1s0,0.1,0.1,0.2c0.1,0.1,0.1,0.2,0.2,0.3C38,1.8,38,1.9,38,2L38,2z"/>
</g>
<g>
	<path class="text" d="M15.5,30.2c-0.1,0.1-0.2,0.3-0.2,0.8s-0.2,0.8-0.5,1s-0.7,0.4-1,0.6c-0.1,0.1-0.2,0.1-0.2,0.2c-0.1,0.1-0.2,0.1-0.3,0.1
		c-0.2,0-0.3-0.1-0.4-0.2c-0.1-0.1-0.2-0.2-0.4-0.2c0.1-0.1,0.1-0.2,0.2-0.3c0.1-0.1,0.1-0.2,0.1-0.3v-0.5c0-0.1,0-0.1,0.1-0.2
		c0-0.1,0.1-0.1,0.1-0.2v-0.7c0-0.2,0.1-0.3,0.2-0.3c0.1-0.1,0.2-0.2,0.2-0.3c0-0.3-0.1-0.6-0.3-0.9c-0.2-0.3-0.4-0.4-0.8-0.4
		c-0.1,0-0.1,0-0.1-0.1l-0.1-0.1c-0.2,0-0.4,0.1-0.5,0.2c-0.1,0.2-0.3,0.3-0.4,0.4c-0.2,0.2-0.3,0.4-0.4,0.6
		c-0.1,0.2-0.2,0.4-0.3,0.7c-0.3,0.6-0.4,1.2-0.4,1.6s0,1,0,1.7c0,0.6,0.1,1.2,0.2,1.6s0.3,1,0.5,1.5c0.1,0.4,0.2,0.7,0.3,1.1
		c0.1,0.4,0.2,0.7,0.4,1.1c0.1,0.2,0.2,0.4,0.3,0.7c0.1,0.2,0.2,0.4,0.3,0.7c0.2,0.4,0.3,0.7,0.5,1s0.3,0.6,0.5,1
		c0.1,0.2,0.2,0.4,0.2,0.7c0.1,0.2,0.2,0.4,0.2,0.7c0.1,0.1,0.1,0.2,0.2,0.3c0.1,0.1,0.1,0.2,0.1,0.3v0.6c0,0.1,0,0.2,0.1,0.2
		c0,0.1,0.1,0.2,0.1,0.2v1.1c0,0.2,0,0.4-0.1,0.6c0,0.2-0.1,0.4-0.1,0.6c0,0.1,0,0.2-0.1,0.2c-0.1,0.1-0.1,0.2-0.1,0.3
		c-0.1,0.4-0.2,0.7-0.3,0.9s-0.3,0.5-0.5,0.8c-0.6,0.8-1.3,1.5-2.1,2.2s-1.7,1-2.8,1c-0.2,0-0.4,0-0.6,0c-0.2,0-0.4,0-0.6,0
		c-0.3,0-0.6-0.1-0.8-0.2c-0.2-0.1-0.5-0.2-0.8-0.3c-0.9-0.4-1.6-0.8-2.2-1.4c-0.6-0.6-1.2-1.2-1.7-2c-0.1-0.1-0.3-0.2-0.4-0.3
		c-0.1-0.1-0.3-0.2-0.4-0.3c-0.1-0.1-0.1-0.2-0.1-0.3s0-0.2-0.1-0.3c0-0.1-0.1-0.1-0.1-0.2C0,47.4,0,47.4,0,47.3
		c0-0.1,0-0.2,0.1-0.2c0-0.1,0.1-0.1,0.1-0.2c0-0.1,0-0.1,0-0.2c0-0.1,0-0.1,0-0.2c0-0.2,0.1-0.3,0.2-0.4c0.1-0.1,0.2-0.2,0.4-0.2
		s0.3-0.1,0.5-0.1s0.3-0.1,0.4-0.1c0.1,0,0.1-0.1,0.2-0.1C2,45.5,2,45.5,2.1,45.5c0.3,0,0.6,0.1,0.8,0.3s0.3,0.5,0.4,0.8
		c0.1,0.1,0.1,0.3,0.1,0.4c0,0.1,0,0.3,0.1,0.4c0.1,0.2,0.2,0.4,0.4,0.5s0.3,0.3,0.5,0.5s0.4,0.4,0.6,0.5c0.2,0.1,0.5,0.3,0.7,0.4
		c0.4,0.2,0.7,0.4,1,0.5S7.4,50,7.8,50c0.3,0,0.5-0.1,0.8-0.2c0.2-0.1,0.4-0.3,0.6-0.4c0.7-0.5,1.2-1,1.6-1.6
		c0.4-0.6,0.5-1.3,0.5-2.2c0-0.4,0-0.7,0-0.9c0-0.3-0.1-0.6-0.2-0.9c-0.1-0.2-0.2-0.5-0.4-0.7c-0.1-0.2-0.2-0.5-0.2-0.8
		c0-0.4-0.1-0.7-0.3-0.9s-0.4-0.5-0.6-0.8c-0.1-0.2-0.3-0.6-0.4-1.1C9,39,8.8,38.4,8.6,37.8c-0.2-0.6-0.4-1.2-0.5-1.7
		S7.9,35.2,7.9,35c0-0.1,0-0.2-0.1-0.2c0-0.1-0.1-0.1-0.1-0.2c-0.1-0.5-0.1-1-0.1-1.5s0-1,0-1.5c0-0.4,0-0.7,0.1-0.9
		s0.1-0.5,0.3-0.9c0.1-0.2,0.1-0.3,0.1-0.5s0.1-0.3,0.2-0.5c0.1-0.2,0.2-0.4,0.5-0.8c0.2-0.3,0.5-0.6,0.8-0.9c0.3-0.3,0.6-0.5,1-0.8
		c0.3-0.2,0.6-0.3,0.8-0.3c0.1,0,0.2,0,0.3,0s0.2,0,0.3,0c0.2,0,0.3,0,0.5-0.1c0.1,0,0.3-0.1,0.4-0.1c0.4,0,0.8,0.1,1.1,0.2
		s0.6,0.4,0.9,0.7s0.6,0.6,0.9,0.9c0.3,0.3,0.5,0.7,0.5,1.2v1.4C15.7,30,15.6,30.1,15.5,30.2z"/>
	<path class="text" d="M50.8,28.9c0,0.4-0.1,0.7-0.3,1s-0.5,0.4-0.9,0.4c-0.2,0-0.4,0.1-0.7,0.2c-0.2,0.1-0.4,0.2-0.7,0.2c-0.1,0-0.1,0-0.2,0
		c-0.1,0-0.1,0-0.2,0c-0.1,0-0.1,0-0.2,0c-0.1,0-0.1,0-0.2,0c-0.4,0-0.7,0-1-0.1c-0.3,0-0.7-0.1-1-0.1h-1.8c-0.1,0-0.1,0-0.1,0
		s0,0-0.1,0s-0.1,0-0.2,0c-0.1,0-0.1,0-0.2,0h-0.5c-0.3,0.5-0.6,0.9-0.8,1.4s-0.3,0.9-0.4,1.4c-0.1,0.5-0.2,1-0.3,1.4
		c-0.1,0.5-0.2,1-0.4,1.5s-0.3,1.1-0.4,1.7c-0.1,0.6-0.2,1.1-0.3,1.7c-0.1,0.4-0.2,0.8-0.4,1.2c-0.1,0.4-0.2,0.8-0.2,1.2
		c0,0.1,0,0.1,0,0.1s0,0,0,0.1c0,0.2-0.1,0.5-0.2,0.7c-0.1,0.2-0.2,0.4-0.2,0.6c-0.2,0.8-0.4,1.6-0.5,2.4c-0.1,0.8-0.2,1.6-0.2,2.4
		c0,0.1,0,0.1-0.1,0.1c0,0-0.1,0-0.1,0.1s0,0.1,0.1,0.2c0,0.1,0.1,0.1,0.1,0.2c0,0.4,0,0.7-0.1,1.1c-0.1,0.4-0.2,0.7-0.5,0.9
		C37.5,51,37.5,51,37.4,51c-0.1,0-0.2,0-0.2,0.1c-0.2,0.1-0.3,0.2-0.4,0.2c-0.1,0.1-0.3,0.1-0.5,0.1c-0.3,0-0.5-0.1-0.6-0.3
		s-0.2-0.4-0.3-0.7c-0.1-0.2-0.2-0.4-0.3-0.6C35,49.6,35,49.4,35,49.2c0-0.2,0-0.3,0.1-0.5s0.1-0.3,0.1-0.5c0-0.4,0.1-0.8,0.2-1.1
		c0.1-0.4,0.2-0.7,0.3-1.1c0.1-0.6,0.2-1.1,0.3-1.7c0.1-0.6,0.2-1.1,0.3-1.7c0.1-0.5,0.2-1,0.4-1.4s0.3-0.9,0.3-1.4s0.1-1,0.3-1.4
		s0.3-0.9,0.4-1.4c0.1-0.7,0.2-1.4,0.3-2c0.1-0.7,0.2-1.3,0.4-2c0.1-0.3,0.2-0.6,0.4-0.9c0.1-0.3,0.2-0.6,0.2-0.9
		c0-0.1,0-0.2-0.1-0.2s-0.2,0-0.2,0c-0.2,0-0.4,0-0.6,0c-0.2,0-0.4,0-0.6,0c-0.3,0.1-0.5,0.1-0.7,0.1s-0.3,0.1-0.5,0.1
		s-0.3,0.1-0.5,0.1s-0.4,0-0.8,0c-0.2,0-0.3,0-0.4-0.1c-0.1-0.1-0.2-0.2-0.2-0.3c-0.1-0.1-0.1-0.2-0.2-0.2c-0.1-0.1-0.2-0.1-0.2-0.2
		c0-0.1,0-0.1,0-0.1v-0.1c0-0.1-0.1-0.2-0.2-0.3c-0.1-0.1-0.2-0.2-0.2-0.3c0-0.5,0.1-0.9,0.4-1.2s0.7-0.5,1.2-0.5
		c0.1,0,0.2,0,0.2,0.1s0.1,0.1,0.2,0.1c0.1,0,0.1,0,0.2,0c0.1,0,0.1,0,0.2,0c0.2,0,0.3,0,0.5,0.1c0.1,0.1,0.3,0.1,0.5,0.1
		s0.3,0,0.5-0.1c0.1,0,0.3-0.1,0.5-0.1c0.1,0,0.2,0,0.3,0.1c0.1,0,0.2,0.1,0.3,0.1s0.3,0,0.4-0.1c0.1,0,0.3-0.1,0.4-0.1
		c0.1,0,0.2,0,0.3,0s0.2,0,0.3,0c0.2,0,0.4-0.1,0.5-0.2c0.1-0.1,0.2-0.3,0.3-0.4c0.1-0.2,0.2-0.3,0.3-0.4c0.1-0.1,0.3-0.2,0.4-0.2
		h1.1c0.1,0,0.2,0.1,0.3,0.2c0.1,0.1,0.2,0.2,0.3,0.2c0.1,0.1,0.2,0.1,0.4,0.2c0.1,0.1,0.2,0.1,0.2,0.3c0,0.1,0.1,0.2,0.2,0.3
		c0.2,0,0.3,0.1,0.4,0.1c0.4,0.1,0.8,0.1,1.2,0.1s0.8,0,1.2,0c0.1,0,0.2,0,0.3,0s0.2,0,0.3,0s0.1,0,0.1,0h0.1c0.1,0,0.1,0,0.1,0h0.1
		c0.2,0,0.3,0,0.5-0.1c0.2,0,0.3-0.1,0.5-0.1c0.4,0,0.8,0.1,1.1,0.3C50.6,28.2,50.8,28.5,50.8,28.9z"/>
	<path class="text" d="M84.5,39.6c0,0.5-0.1,1.1-0.3,1.6c-0.2,0.5-0.4,1-0.5,1.5c-0.2,0.6-0.4,1.2-0.6,1.8s-0.5,1.2-0.8,1.7
		c-0.1,0.2-0.2,0.4-0.3,0.6c-0.1,0.2-0.1,0.4-0.3,0.6l-1.2,1.8c-0.1,0.1-0.2,0.2-0.3,0.3c-0.1,0.1-0.2,0.2-0.3,0.3
		c-0.1,0.3-0.3,0.5-0.4,0.5c-0.1,0.1-0.3,0.2-0.5,0.4c-0.2,0.1-0.3,0.3-0.3,0.4c-0.1,0.1-0.2,0.3-0.3,0.5C78.2,51.8,78,52,77.8,52
		c-0.2,0.1-0.4,0.2-0.6,0.3c-0.1,0.1-0.1,0.1-0.1,0.2c0,0.1,0,0.1-0.1,0.2c-0.1,0.2-0.3,0.5-0.5,0.7s-0.5,0.4-0.7,0.5
		c-0.5,0.3-0.9,0.6-1.3,0.9c-0.4,0.3-0.8,0.6-1.3,0.8c-0.4,0.2-0.9,0.4-1.4,0.5s-1,0.2-1.6,0.2c-0.3,0-0.6-0.1-0.8-0.2
		c-0.2-0.1-0.5-0.2-0.8-0.3c-0.5-0.2-0.9-0.5-1.2-0.7c-0.3-0.3-0.5-0.7-0.8-1.2c-0.1-0.1-0.1-0.3-0.2-0.3c-0.1-0.1-0.2-0.2-0.2-0.3
		c-0.3-0.7-0.5-1.5-0.7-2.3c-0.1-0.8-0.2-1.6-0.2-2.4v-1.5c0-0.3,0-0.6,0.1-0.9c0.1-0.3,0.1-0.6,0.1-1c0-0.5,0.1-1,0.3-1.4
		c0.2-0.4,0.3-0.9,0.4-1.4s0.2-1,0.3-1.5c0.1-0.5,0.3-1,0.5-1.5c0.1-0.2,0.2-0.3,0.3-0.4c0.1-0.1,0.2-0.3,0.3-0.5
		c0.1-0.4,0.2-0.7,0.3-0.9c0.1-0.3,0.2-0.5,0.4-0.8c0.1-0.2,0.3-0.5,0.4-0.8s0.3-0.5,0.5-0.8c0.4-0.7,0.9-1.4,1.5-2.1
		c0.1-0.2,0.3-0.3,0.4-0.5c0.2-0.2,0.2-0.4,0.2-0.6c0-0.1,0-0.1-0.1-0.1v-0.1c0-0.1,0-0.1,0.1-0.2c0.1,0,0.1-0.1,0.1-0.1
		c0.2-0.1,0.3-0.3,0.4-0.5s0.2-0.4,0.3-0.6c0.2-0.4,0.4-0.6,0.6-0.8s0.5-0.4,0.8-0.6c0.6-0.5,1.1-0.8,1.6-1s1.1-0.3,1.8-0.3
		c1.2,0,2.3,0.3,3.1,0.8c0.8,0.6,1.6,1.3,2.4,2.2c0.2,0.3,0.5,0.6,0.7,1c0.2,0.3,0.4,0.7,0.6,1s0.3,0.6,0.4,0.8s0.2,0.5,0.2,0.9v0.9
		c0,0.2,0,0.4,0.1,0.5s0.1,0.3,0.1,0.5s0,0.3,0,0.5s0,0.3,0,0.5V39.6z M82,37.1l0.1-0.4L82,36.4c0-0.3-0.1-0.7-0.2-1.2
		c-0.1-0.4-0.3-0.9-0.4-1.3c-0.2-0.4-0.4-0.9-0.6-1.3c-0.2-0.4-0.4-0.7-0.7-0.9c-0.1-0.1-0.3-0.2-0.5-0.3s-0.4-0.2-0.6-0.3
		c-0.1,0.2-0.1,0.4-0.1,0.6c0,0.2-0.1,0.4-0.3,0.5l-0.7,0.4l-0.7-0.1c-0.7,0-1.2,0.2-1.7,0.5s-1,0.7-1.5,1.2
		c-0.3,0.3-0.6,0.6-0.9,0.9c-0.3,0.3-0.5,0.6-0.8,1s-0.5,0.7-0.7,1.1c-0.2,0.4-0.4,0.8-0.7,1.2c-0.1,0.1-0.1,0.2-0.1,0.3
		s0,0.2-0.1,0.3c-0.3,0.4-0.5,0.7-0.5,1c-0.1,0.3-0.2,0.6-0.3,1c-0.1,0.1-0.2,0.6-0.5,1.3s-0.6,1.8-0.8,3.4l-0.1,1.6l-0.1,0.9
		l0.1,0.3l-0.3,0.2l0.1,0.3l-0.1,0.4c0,0.4,0,0.9,0.1,1.4s0.2,1,0.4,1.4c0.2,0.4,0.5,0.8,0.8,1.1s0.7,0.4,1.3,0.4
		c0.2,0,0.4-0.1,0.6-0.2c0.1-0.1,0.3-0.2,0.5-0.3c0.1-0.1,0.2-0.1,0.3-0.1c0.1,0,0.2,0,0.3-0.1c0.2-0.1,0.3-0.2,0.4-0.3
		s0.2-0.2,0.4-0.4l0.9-0.6c0.1-0.1,0.2-0.2,0.3-0.4c0-0.1,0.1-0.2,0.3-0.3c0.3-0.2,0.6-0.4,0.9-0.8c0.3-0.4,0.6-0.6,0.9-0.8
		c0.3-0.3,0.6-0.6,0.8-0.9c0.2-0.4,0.5-0.7,0.8-1c0.2-0.2,0.4-0.5,0.7-0.9c0.2-0.4,0.4-0.7,0.6-0.9c0.1-0.1,0.1-0.2,0.1-0.3
		s0-0.2,0.1-0.2l0.4-0.2c0.2-0.2,0.2-0.5,0.2-0.8s0.1-0.5,0.2-0.8c0.4-0.5,0.6-0.9,0.7-1.3c0.1-0.4,0.2-0.9,0.3-1.4L82,38l0.2-0.6
		L82,37.1z"/>
	<path class="text" d="M120,50c0,0.3,0,0.5-0.1,0.7s-0.2,0.4-0.5,0.6c-0.1,0.1-0.3,0.2-0.3,0.3c-0.1,0.1-0.2,0.2-0.4,0.2h-0.6
		c-0.3,0-0.5-0.1-0.7-0.3s-0.3-0.4-0.4-0.6c-0.2-0.4-0.4-0.8-0.6-1.1c-0.2-0.4-0.4-0.7-0.7-1.1c-0.4-0.6-0.8-1.3-1.3-2
		c-0.4-0.7-0.9-1.3-1.3-2c-0.5-0.7-0.9-1.3-1.5-1.9c-0.5-0.6-1.1-1.2-1.7-1.6c-0.2-0.1-0.3-0.2-0.5-0.2s-0.4-0.1-0.5-0.2
		c-0.3-0.3-0.5-0.6-0.8-0.9c-0.2-0.4-0.4-0.7-0.7-1c-0.3,0.4-0.4,0.8-0.4,1.2s-0.1,0.9-0.2,1.3c-0.1,0.2-0.1,0.4-0.2,0.5
		c-0.1,0.2-0.1,0.4-0.1,0.6c0,0.1,0,0.1,0,0.1v0.1c0,0.2-0.1,0.5-0.2,0.6c-0.1,0.2-0.2,0.4-0.2,0.6c0,0.9-0.1,1.7-0.3,2.5
		s-0.3,1.6-0.3,2.5c0,0.2,0,0.4,0.1,0.6c0.1,0.2,0.1,0.4,0.1,0.7c0,0.2,0,0.5-0.1,0.7c0,0.3-0.1,0.5-0.2,0.7s-0.2,0.4-0.4,0.5
		c-0.2,0.1-0.4,0.2-0.7,0.2h-0.4c-0.1,0-0.3,0-0.3-0.1c-0.1-0.1-0.2-0.1-0.3-0.1c-0.1,0-0.2,0-0.2-0.1s-0.1-0.2-0.1-0.3
		c-0.1-0.2-0.2-0.5-0.3-0.6c-0.1-0.2-0.1-0.4-0.1-0.7c0-0.2,0-0.3-0.1-0.5s-0.1-0.3-0.1-0.5c0-0.4,0.1-0.8,0.2-1.2s0.2-0.8,0.2-1.2
		c0-0.1,0-0.1,0-0.2c0-0.1,0-0.1,0-0.2c0-0.2,0-0.4,0.1-0.5s0.1-0.3,0.2-0.5c0.1-0.4,0.1-0.8,0.1-1.2s0.1-0.8,0.2-1.2
		s0.2-0.8,0.4-1.1c0.1-0.4,0.2-0.8,0.2-1.2c0-0.5,0-0.8,0.1-1.1s0.2-0.6,0.3-1c0.1-0.5,0.2-0.9,0.2-1.4s0.1-0.9,0.2-1.4
		c0.1-0.3,0.2-0.6,0.2-0.9s0.1-0.6,0.1-0.9c0-0.5-0.1-1-0.4-1.5s-0.4-1-0.4-1.5c0-0.1,0-0.2,0.1-0.2c0.1-0.1,0.1-0.2,0.1-0.2
		c0.1-0.2,0.1-0.4,0.1-0.6c0-0.2,0-0.4,0.1-0.5c0-0.1,0.1-0.1,0.3-0.3c0.2-0.1,0.4-0.3,0.7-0.4c0.2-0.1,0.5-0.2,0.7-0.3
		s0.4-0.2,0.4-0.2c0.2-0.1,0.4-0.1,0.5-0.2c0.1-0.1,0.3-0.2,0.5-0.3c0.5-0.3,0.9-0.5,1.3-0.7s0.9-0.3,1.5-0.5h0.1h0.1
		c0.1,0,0.2,0,0.2,0c0.1,0,0.1,0,0.2,0s0.2,0,0.3-0.1c0.1-0.1,0.2-0.1,0.3-0.1c0.2,0,0.3,0,0.5,0.1c0.1,0,0.3,0.1,0.5,0.1
		c0.4,0,0.9,0.1,1.5,0.4c0.6,0.3,1,0.6,1.3,0.9c0.3,0.4,0.6,0.7,0.9,1s0.4,0.7,0.4,1.2c0,0.9-0.2,1.8-0.6,2.6s-0.8,1.6-1.1,2.4
		c-0.1,0.2-0.2,0.4-0.4,0.5c-0.2,0.1-0.3,0.3-0.4,0.4c-0.2,0.4-0.4,0.6-0.5,0.9c-0.1,0.2-0.4,0.5-0.7,0.8c-0.1,0.1-0.1,0.1-0.3,0.2
		c-0.1,0.1-0.2,0.2-0.4,0.3c-0.1,0.1-0.2,0.2-0.3,0.3c-0.1,0.1-0.1,0.2-0.1,0.2c0,0.2,0.1,0.3,0.2,0.4c0.1,0.1,0.3,0.2,0.4,0.4
		c0.7,0.7,1.3,1.4,1.9,2.2s1.2,1.6,1.6,2.4c0.3,0.5,0.6,1,0.9,1.5s0.6,0.9,1,1.4c0.2,0.2,0.4,0.4,0.6,0.6c0.2,0.2,0.4,0.4,0.7,0.5
		c0.2,0.2,0.4,0.4,0.5,0.6C119.9,49.4,120,49.7,120,50z M113.7,30.6c0-0.4-0.2-0.7-0.5-0.9c-0.4-0.1-0.7-0.2-1.1-0.2
		c-0.2,0-0.4,0-0.6,0s-0.4,0.1-0.6,0.1c-0.1,0.1-0.3,0.1-0.4,0.3c-0.1,0.1-0.2,0.2-0.4,0.3c-0.2,0.1-0.4,0.2-0.5,0.3
		c-0.2,0.1-0.3,0.3-0.3,0.5c0,0.1,0,0.2,0.1,0.4s0.1,0.4,0.1,0.6c0,0.6-0.2,1.1-0.5,1.5c-0.1,0.1-0.2,0.2-0.3,0.3
		c-0.1,0.1-0.2,0.2-0.3,0.3c-0.2,0.2-0.3,0.4-0.3,0.7c0,0.2-0.1,0.5-0.1,0.8c-0.1,0.3-0.1,0.6-0.2,0.9c-0.1,0.3-0.2,0.6-0.2,0.9
		c0,0.1,0,0.2,0.1,0.3c0.2-0.2,0.3-0.3,0.4-0.4c0.1-0.1,0.1-0.2,0.2-0.2s0.2-0.1,0.3-0.1c0.1,0,0.3,0,0.6,0c0.5,0,0.9-0.2,1.3-0.6
		c0.4-0.4,0.7-0.8,1-1.1c0.4-0.4,0.7-0.9,1-1.4s0.5-1,0.9-1.4c0.1-0.2,0.2-0.4,0.2-0.6c0-0.2,0.1-0.4,0.2-0.6v-0.7L113.7,30.6
		L113.7,30.6z"/>
	<path class="text" d="M156.4,28.7c0,0.2-0.1,0.4-0.2,0.6c-0.1,0.1-0.3,0.2-0.5,0.3s-0.4,0.1-0.7,0.1c-0.2,0-0.4,0-0.6,0c-0.3,0-0.5,0-0.6,0
		s-0.2,0.1-0.5,0.1c-0.6,0.1-1.2,0.1-1.8,0.2c-0.6,0.1-1.2,0.1-1.8,0.1c-0.1,0-0.2,0-0.2,0.1c-0.1,0-0.1,0.1-0.2,0.1h-0.4
		c-0.4,0-0.7,0.1-1,0.2c-0.3,0.1-0.6,0.2-1,0.3c-0.7,0.2-1.3,0.4-1.7,0.6c-0.4,0.2-0.7,0.5-1,0.9c-0.2,0.4-0.4,0.8-0.6,1.3
		s-0.3,1-0.5,1.7c-0.1,0.3-0.2,0.6-0.2,0.8c-0.1,0.2-0.1,0.5-0.1,0.8c0,0.4-0.1,0.7-0.3,1.1c-0.2,0.4-0.3,0.7-0.3,1.1
		c0,0.2,0.1,0.2,0.2,0.2c0.3,0,0.6-0.1,0.9-0.2s0.6-0.2,0.9-0.3c0.5-0.1,0.9-0.2,1.2-0.3c0.3-0.1,0.7-0.1,1.3-0.1c0.1,0,0.2,0,0.2,0
		c0.1,0,0.1,0,0.2-0.1c0.4-0.2,0.8-0.3,1.1-0.3c0.3-0.1,0.7-0.1,1.2-0.1s0.8,0.1,1.2,0.4c0.3,0.3,0.5,0.7,0.5,1.1
		c0,0.2-0.1,0.3-0.2,0.4c-0.2,0.1-0.3,0.2-0.4,0.2c-0.1,0.1-0.3,0.1-0.4,0.2c-0.1,0.1-0.2,0.2-0.4,0.2c-0.3,0.1-0.6,0.1-0.9,0.1
		s-0.6,0-0.9,0.1c-0.6,0.1-1.1,0.3-1.7,0.4c-0.6,0.1-1.1,0.3-1.6,0.5c-0.4,0.2-0.8,0.3-1.2,0.4c-0.4,0.1-0.8,0.3-1.2,0.5
		c-0.2,0.1-0.3,0.2-0.4,0.3s-0.2,0.2-0.3,0.4c-0.2,0.7-0.3,1.4-0.3,2.1c0,0.7-0.1,1.4-0.1,2.1c0,0.4,0,0.7-0.1,1s-0.1,0.6-0.1,0.9
		c0,0.2,0,0.4,0,0.7c0,0.2,0.1,0.4,0.2,0.6c0.8-0.4,1.5-0.7,2.2-1.1c0.7-0.4,1.4-0.8,2.1-1.2c0.5-0.3,1-0.6,1.5-0.9
		c0.5-0.3,1-0.6,1.5-0.8c0.2-0.1,0.4-0.3,0.6-0.5c0.1-0.2,0.4-0.3,0.7-0.3h0.1c0.2,0,0.4,0,0.5,0.1c0.2,0.1,0.3,0.1,0.5,0.1
		c0.1,0,0.2,0,0.4-0.1c0.1,0.2,0.3,0.4,0.5,0.6c0.2,0.2,0.3,0.4,0.3,0.7c0,0.1,0,0.1,0,0.2c0,0.1,0,0.1,0,0.2c0,0.3-0.1,0.5-0.3,0.7
		c-0.2,0.2-0.4,0.3-0.7,0.4c-0.3,0.1-0.5,0.2-0.8,0.3s-0.5,0.2-0.7,0.3c-0.5,0.3-0.9,0.5-1.4,0.8c-0.5,0.2-1,0.5-1.4,0.8
		c-0.6,0.4-1.2,0.7-1.8,1.1c-0.6,0.3-1.2,0.7-1.8,1.1c-0.4,0.2-0.7,0.5-1.1,0.7c-0.3,0.2-0.7,0.3-1.2,0.3s-0.9-0.1-1.3-0.4
		c-0.3-0.3-0.6-0.7-0.8-1.1c-0.2-0.4-0.3-0.9-0.4-1.4s-0.1-1-0.1-1.4c0-0.3,0-0.7,0-1.1c0-0.5,0.1-0.8,0.1-1.1c0-0.1,0-0.1,0-0.1
		v-0.1c0-0.1,0-0.2,0-0.3s0-0.2,0-0.3c0-0.6,0.1-1.2,0.2-1.8c0.2-0.6,0.2-1.3,0.2-2c0-0.2,0-0.4,0.1-0.6c0.1-0.2,0.1-0.4,0.1-0.6
		c0-0.1,0-0.2-0.1-0.2c-0.1-0.1-0.1-0.1-0.1-0.2v-0.5c0-0.2,0.1-0.4,0.2-0.5s0.3-0.3,0.3-0.5c0.1-0.4,0.2-0.7,0.2-0.9s0-0.5,0-0.9
		c0-0.2,0-0.4,0.1-0.5s0.1-0.3,0.2-0.5s0.1-0.4,0.1-0.7c0-0.2,0-0.5,0.1-0.7c0.1-0.6,0.4-1.3,0.7-2.1c0.3-0.7,0.4-1.4,0.4-2.1
		c0-0.1,0-0.3,0-0.4c0-0.1,0-0.2,0-0.4c0-0.1,0-0.3-0.1-0.4c-0.1-0.1-0.1-0.3-0.1-0.4c0-0.2,0.1-0.4,0.3-0.4
		c0.2-0.1,0.4-0.1,0.5-0.2c0.2-0.1,0.5-0.3,0.7-0.4c0.2-0.2,0.4-0.3,0.7-0.3h0.4c0.1,0,0.1,0,0.2-0.1c0.1,0,0.1-0.1,0.2-0.1
		s0.1,0,0.1,0.1l0.1,0.1c0.4,0,0.8,0,1.2-0.1c0.4-0.1,0.7-0.2,1.1-0.3s0.8-0.2,1.1-0.3c0.4-0.1,0.8-0.2,1.2-0.2c0.3,0,0.5,0,0.8-0.1
		s0.5-0.1,0.8-0.1h1.3c0.3,0,0.6-0.1,0.9-0.2c0.3-0.1,0.6-0.2,0.9-0.2h0.6c0.1,0,0.1,0,0.1,0h0.1c0.2,0,0.3,0,0.4,0.1s0.3,0.1,0.4,0
		c0,0.2,0,0.3,0.1,0.4c0.1-0.1,0.2-0.1,0.4-0.1s0.2,0.1,0.2,0.2s0,0.2,0.1,0.3c0.1,0.2,0.2,0.3,0.3,0.4
		C156.3,28.4,156.3,28.6,156.4,28.7L156.4,28.7z"/>
	<path class="text" d="M189.8,28.1c0,0.3,0,0.5-0.1,0.6s-0.1,0.3-0.2,0.3c-0.1,0.1-0.2,0.2-0.3,0.3c-0.1,0.1-0.2,0.2-0.3,0.4
		c-0.5,1.1-1,2.2-1.6,3.2c-0.5,1.1-1.2,2.1-1.9,3c-0.1,0.2-0.3,0.3-0.3,0.5c-0.1,0.2-0.2,0.3-0.4,0.5c-0.3,0.3-0.6,0.6-0.8,0.9
		c-0.1,0.1-0.1,0.2-0.1,0.3s-0.1,0.2-0.2,0.3c-0.2,0.1-0.3,0.3-0.4,0.4c-0.1,0.1-0.2,0.3-0.3,0.5c-0.1,0.1-0.1,0.1-0.2,0.2
		c-0.1,0-0.2,0.1-0.2,0.3v0.5c0,0.1,0.1,0.1,0.2,0.2c-0.1,0.1-0.2,0.2-0.2,0.4c0,0.1-0.1,0.3-0.2,0.3c-0.1,0.1-0.2,0.1-0.2,0.1
		c-0.1,0-0.2,0-0.2,0.1c-0.4,0.3-0.7,0.7-0.8,1.2c-0.1,0.5-0.2,1-0.4,1.4c-0.1,0.2-0.2,0.5-0.3,0.7c-0.1,0.2-0.2,0.4-0.2,0.7
		c-0.1,0.2-0.1,0.4-0.1,0.6c0,0.2,0,0.4-0.1,0.5c0,0.1-0.1,0.1-0.1,0.2c-0.1,0.1-0.1,0.1-0.1,0.2c0,0,0,0.1-0.1,0.3
		s-0.1,0.4-0.2,0.7c-0.1,0.2-0.2,0.5-0.2,0.7c-0.1,0.2-0.1,0.3-0.1,0.4c-0.2,0.4-0.4,0.7-0.6,1s-0.4,0.6-0.6,1
		c-0.2,0.5-0.4,0.9-0.5,1.2c-0.2,0.4-0.2,0.8-0.2,1.3v0.4c0,0.2,0,0.4-0.1,0.5s-0.2,0.3-0.2,0.5c-0.1,0.1-0.1,0.3-0.1,0.4
		c0,0.1-0.1,0.3-0.2,0.3c-0.2,0.1-0.5,0.2-0.7,0.2s-0.5,0-0.8,0c-0.2,0-0.4-0.1-0.6-0.2c-0.2-0.1-0.3-0.3-0.4-0.5c0-0.1,0-0.1,0-0.2
		c0-0.1,0-0.1,0-0.2c0-0.1-0.1-0.3-0.2-0.4c-0.1-0.2-0.2-0.4-0.2-0.7s0.1-0.5,0.2-0.7s0.3-0.4,0.4-0.7c0.1-0.1,0.1-0.2,0.1-0.3
		s0-0.2,0.1-0.3c0.1-0.2,0.1-0.4,0.3-0.6c0.1-0.2,0.2-0.4,0.3-0.6c0.1-0.3,0.2-0.5,0.2-0.6c0.1-0.1,0.2-0.1,0.2-0.2
		c0.1,0,0.2-0.1,0.3-0.1c0.1-0.1,0.2-0.2,0.3-0.5c0.2-0.5,0.3-1,0.5-1.6c0.1-0.5,0.3-1.1,0.5-1.6c0-0.1,0.1-0.3,0.2-0.6
		s0.2-0.7,0.3-1c0.1-0.4,0.2-0.7,0.3-1c0.1-0.3,0.1-0.5,0.1-0.6s-0.1-0.2-0.2-0.2s-0.3,0-0.3,0c-0.2,0-0.4-0.1-0.5-0.2
		c-0.1-0.1-0.3-0.2-0.4-0.3c-0.2-0.2-0.4-0.4-0.5-0.6c-0.1-0.2-0.3-0.5-0.5-0.7c-0.1-0.1-0.1-0.2-0.2-0.3c0-0.1-0.1-0.2-0.1-0.3
		c-0.2-0.4-0.4-0.8-0.5-1.2c-0.2-0.4-0.3-0.8-0.5-1.2c-0.1-0.3-0.2-0.6-0.2-0.9s0-0.6-0.1-1c-0.2-0.8-0.3-1.6-0.3-2.5
		c-0.1-0.9-0.1-1.7-0.1-2.5c0-0.3,0-0.5,0-0.8s0-0.5,0-0.8s0-0.5,0.1-0.8c0.1-0.2,0.1-0.5,0.1-0.8c0-0.1,0-0.1,0-0.2
		c0-0.1,0-0.1,0-0.2c0-0.2,0.1-0.4,0.2-0.6c0.1-0.1,0.2-0.3,0.4-0.4c0.1-0.1,0.1-0.1,0.1-0.2c0-0.1,0.1-0.1,0.2-0.1s0.2,0,0.2,0
		c0.1,0,0.1,0,0.2,0s0.1,0,0.2-0.1s0.1-0.1,0.1-0.1c0.5,0,0.9,0.2,1.2,0.6c0.3,0.4,0.4,0.8,0.4,1.3v0.8c0,0.2-0.1,0.4-0.3,0.6
		c-0.2,0.2-0.3,0.4-0.3,0.6v0.7c0,0.3,0,0.5-0.1,0.8c-0.1,0.2-0.1,0.5-0.1,0.8c0,0.1,0,0.2,0,0.2c0,0.1,0,0.2,0,0.2
		c0,0.1,0,0.2,0,0.3s0,0.2,0,0.3c0,0.7,0.1,1.3,0.2,1.9c0.2,0.6,0.2,1.3,0.2,1.9c0,0.1,0,0.2,0.1,0.3s0.1,0.1,0.2,0.2
		c0.1,0.1,0.1,0.3,0.2,0.5s0.2,0.4,0.3,0.6c0.1,0.2,0.2,0.4,0.4,0.5c0.1,0.1,0.3,0.2,0.4,0.2c0.2,0,0.4-0.1,0.5-0.3s0.2-0.4,0.3-0.6
		c0.1-0.2,0.2-0.4,0.3-0.6c0.1-0.2,0.3-0.3,0.5-0.3c0.1,0,0.1,0,0.2,0s0.1,0,0.2,0c0.3,0,0.6-0.1,0.7-0.4c0.2-0.3,0.3-0.5,0.5-0.7
		c0.3-0.4,0.6-0.7,0.9-1.1s0.6-0.7,0.9-1.1c0.4-0.5,0.7-0.9,1-1.4c0.3-0.4,0.6-0.9,0.8-1.5c0.1-0.2,0.2-0.3,0.3-0.4
		c0.1-0.1,0.2-0.3,0.2-0.5s0.1-0.4,0.2-0.5s0.2-0.3,0.3-0.4c0.3-0.5,0.4-1,0.4-1.4s0.1-0.9,0.1-1.4c0.1-0.1,0.3-0.3,0.4-0.4
		c0.1-0.1,0.3-0.3,0.3-0.5h1c0.2,0,0.4,0.1,0.6,0.2c0.1,0.1,0.3,0.3,0.4,0.5c0.1,0.1,0.3,0.3,0.4,0.4c0.2,0.1,0.2,0.3,0.2,0.5
		L189.8,28.1L189.8,28.1z"/>
</g>
<g>
	<path class="text" d="M17.8,74.4c-0.1,0.4-0.4,0.8-0.6,1.3c-0.3,0.5-0.5,0.9-0.7,1.2s-0.5,0.7-1,1c-0.1,0.1-0.3,0.3-0.3,0.4
		c-0.1,0.1-0.2,0.3-0.4,0.4c-0.6,0.4-1.2,0.7-1.8,1s-1.3,0.4-2,0.4c-0.2,0-0.3,0-0.5,0.1c-0.1,0-0.3,0.1-0.5,0.1s-0.4,0-0.7,0
		c-0.2,0-0.5,0-0.7-0.1c-0.3-0.1-0.6-0.1-1-0.2c-0.3-0.1-0.6-0.2-1-0.2c-0.1,0-0.2,0.1-0.2,0.2c0,0.2,0,0.3-0.1,0.3
		c-0.1,0.3-0.1,0.5-0.2,0.8C6,81.4,6,81.6,5.9,81.9c-0.1,0.4-0.2,0.8-0.3,1.1c-0.1,0.4-0.2,0.7-0.2,1.1c-0.2,1.1-0.5,2.2-0.7,3.1
		c-0.1,0.2-0.1,0.4-0.2,0.7c-0.1,0.2-0.2,0.4-0.2,0.7c-0.1,0.5-0.1,1-0.1,1.5c0,0.4-0.1,0.7-0.4,0.8c-0.3,0.1-0.6,0.2-1,0.2
		c-0.3,0-0.6,0-0.7-0.1c-0.2-0.1-0.3-0.2-0.4-0.3c-0.1-0.1-0.1-0.3-0.2-0.4c0-0.2-0.1-0.3-0.2-0.5c-0.1-0.1-0.1-0.2-0.2-0.3
		C1,89.4,1,89.3,1,89.2c0-0.3,0.1-0.6,0.2-0.8c0.1-0.2,0.2-0.5,0.3-0.8c0.1-0.5,0.2-1.1,0.3-1.5s0.3-1,0.5-1.5
		c0.2-0.8,0.4-1.6,0.6-2.5c0.1-0.8,0.3-1.7,0.5-2.5c0.1-0.3,0.1-0.6,0.2-0.9c0.1-0.3,0.1-0.6,0.2-0.9c0.1-0.2,0.1-0.5,0.2-0.7
		c0.1-0.2,0.2-0.5,0.2-0.7V76c0-0.5,0.1-1,0.2-1.3c0.1-0.4,0.3-0.8,0.5-1.2s0.2-0.8,0.2-1.2s0.1-0.8,0.2-1.2c0.2-0.5,0.3-1,0.5-1.5
		c0.2-0.4,0.3-1,0.3-1.6c0-0.2,0-0.3-0.1-0.4c-0.1-0.1-0.1-0.3-0.1-0.4c0-0.4,0.1-0.8,0.4-1c0.3-0.3,0.5-0.5,0.8-0.8
		c0.5-0.5,1-0.8,1.4-1s0.9-0.4,1.6-0.6c0.2-0.1,0.3-0.1,0.5-0.2c0.1-0.1,0.3-0.1,0.5-0.1c1.4,0,2.5,0.4,3.4,1.1
		c0.9,0.8,1.6,1.7,2.2,3c0.1,0.3,0.2,0.5,0.3,0.8s0.1,0.5,0.3,0.8c0.1,0.1,0.1,0.2,0.2,0.2c0.1,0.1,0.1,0.2,0.1,0.3
		c0,0.4,0,0.7,0.1,1s0.1,0.5,0.1,0.8v1.7C18,73.5,17.9,74,17.8,74.4z M15.1,71.4c0-0.9-0.1-1.7-0.4-2.3c-0.3-0.6-0.7-1.3-1.3-1.9
		c-0.2-0.2-0.4-0.4-0.6-0.5c-0.2-0.1-0.5-0.2-0.8-0.2c-0.1,0-0.1,0-0.1,0h-0.1c-0.3,0-0.6,0-0.8,0.1c-0.3,0.1-0.5,0.2-0.7,0.5
		c-0.1,0.1-0.1,0.2-0.1,0.3s0,0.2,0,0.4s0,0.4,0,0.6c0,0.2-0.1,0.4-0.2,0.6c-0.1,0.2-0.2,0.4-0.3,0.5S9.4,69.8,9.3,70
		c-0.1,0.2-0.2,0.3-0.3,0.5c0,0.2-0.1,0.4-0.2,0.6c-0.2,0.5-0.4,1-0.5,1.5s-0.2,1-0.3,1.6c-0.1,0.4-0.3,0.9-0.4,1.3
		c-0.1,0.4-0.2,0.8-0.2,1.3c0,0.2,0.1,0.3,0.2,0.3c0.1,0.1,0.3,0.1,0.4,0.1c0.1,0.1,0.3,0.1,0.4,0.2c0.1,0.1,0.3,0.1,0.4,0.1h1.6
		c0.5,0,1-0.1,1.3-0.3c0.4-0.2,0.7-0.5,1.1-0.9c0.2-0.2,0.4-0.4,0.6-0.5c0.2-0.1,0.4-0.3,0.6-0.5c0.1-0.1,0.2-0.2,0.2-0.3
		s0.1-0.2,0.1-0.3c0.3-0.5,0.5-1,0.7-1.5C15,72.6,15.1,72,15.1,71.4z"/>
	<path class="text" d="M43.8,86.6c0,0.1,0,0.1-0.1,0.2c-0.1,0-0.1,0.1-0.1,0.1c-0.1,0.1-0.1,0.2-0.1,0.3s0,0.2-0.1,0.3s-0.2,0.2-0.3,0.2
		s-0.2,0-0.3,0.1s-0.1,0.1-0.2,0.2c0,0.1-0.1,0.2-0.2,0.2c-0.1,0-0.2,0-0.2-0.1S42.1,88,42,88c-0.1,0-0.2,0-0.2,0
		c-0.1,0-0.1,0-0.2,0c-0.1,0-0.2-0.1-0.3-0.2c-0.2-0.1-0.4-0.2-0.7-0.2c-0.2,0-0.4,0-0.7,0.1c-0.2,0-0.5,0.1-0.7,0.1s-0.3,0-0.5-0.1
		c-0.1,0-0.3-0.1-0.5-0.1c-0.1,0-0.2,0-0.3,0.1c-0.1,0-0.1,0.1-0.2,0.1c-0.2,0.1-0.4,0.1-0.5,0c-0.2,0-0.4,0-0.5,0
		c-0.1,0.1-0.2,0.1-0.3,0.2c-0.1,0.1-0.2,0.1-0.3,0.1h-0.4c-0.1,0-0.3,0-0.5,0.1s-0.5,0.1-0.8,0.2c-0.3,0.1-0.5,0.2-0.8,0.3
		c-0.2,0.1-0.4,0.2-0.5,0.2c-0.3,0.2-0.6,0.4-0.9,0.6c-0.2,0.2-0.6,0.3-1,0.3s-0.8-0.1-1.1-0.4c-0.3-0.3-0.5-0.6-0.7-1
		c-0.1-0.2-0.1-0.3-0.2-0.5c-0.1-0.2-0.1-0.4-0.1-0.5l0.2-0.5c0.1-0.1,0.1-0.3,0.2-0.4c0.1-0.1,0.2-0.1,0.3-0.1s0.2-0.1,0.2-0.2
		c0.1-0.3,0.2-0.6,0.2-1c0-0.3,0-0.7,0-1c0-0.4,0.1-0.8,0.2-1.2c0.1-0.4,0.2-0.8,0.3-1.2c0.1-0.5,0.2-0.9,0.3-1.4s0.1-1,0.1-1.4
		c0-0.1,0-0.2,0.1-0.4c0.1-0.4,0.2-0.7,0.3-0.9c0.1-0.3,0.1-0.6,0.1-1c0-0.3,0.1-0.6,0.2-0.9s0.2-0.6,0.3-0.9
		c0.1-0.3,0.1-0.6,0.1-0.9s0.1-0.6,0.1-0.9c0.1-0.3,0.2-0.6,0.3-0.9c0.1-0.3,0.2-0.6,0.2-0.9c0-0.1,0-0.1,0-0.2c0-0.1,0-0.1,0-0.2
		c0-0.1,0-0.1,0.1-0.1s0.1-0.1,0.1-0.1c0.1-0.4,0.2-0.7,0.2-1.1v-0.5c0-0.4,0-0.7,0.1-1.1c0.1-0.4,0.1-0.7,0.1-1.1
		c0-0.2,0-0.4-0.1-0.6c-0.1-0.2-0.1-0.4-0.1-0.6c0-0.2,0-0.3,0.1-0.5c0.1-0.1,0.1-0.3,0.1-0.5s0-0.3,0.1-0.5s0.2-0.2,0.4-0.2
		c0.1,0,0.2,0,0.3,0s0.2,0,0.3,0c0.2,0,0.3,0,0.4,0.1c0.1,0.1,0.3,0.1,0.4,0.1c0.2,0,0.3,0.1,0.4,0.2c0.1,0.1,0.2,0.3,0.2,0.4
		c0.1,0.2,0.1,0.3,0.2,0.5c0.1,0.2,0.2,0.3,0.3,0.4v0.4c0,0.2-0.1,0.5-0.2,0.6s-0.3,0.4-0.3,0.6c-0.1,0.3-0.1,0.5-0.1,0.8
		s0,0.5-0.1,0.8c-0.1,0.2-0.1,0.4-0.2,0.7c-0.1,0.2-0.1,0.4-0.1,0.7c0,0.5-0.1,0.9-0.2,1.3C35,72,35,72.5,35,72.9c0,0.2,0,0.4,0,0.7
		c0,0.2-0.1,0.5-0.2,0.7c-0.1,0.1-0.1,0.2-0.2,0.2c-0.1,0.1-0.1,0.2-0.1,0.3s0,0.1,0,0.2c0,0.1,0,0.1,0,0.2c0,0.2,0,0.3-0.1,0.4
		c-0.1,0.1-0.1,0.3-0.2,0.4c-0.1,0.4-0.1,0.8-0.1,1.2S34,78,33.9,78.4c-0.1,0.3-0.2,0.6-0.3,0.9s-0.1,0.6-0.1,0.9c0,0.1,0,0.1,0,0.2
		c0,0.1,0,0.2,0,0.2c-0.1,0.7-0.3,1.4-0.4,2.2s-0.2,1.5-0.2,2.2c0,0.1,0,0.1,0,0.1v0.1c0,0.2,0.1,0.3,0.2,0.3c0.1,0,0.3,0,0.4-0.1
		c0.1-0.1,0.3-0.1,0.4-0.1c0.3-0.1,0.6-0.1,1-0.1c0.3,0,0.7,0,1-0.1c0.2-0.1,0.3-0.1,0.4-0.2c0.1-0.1,0.2-0.1,0.5-0.1
		c0.1,0,0.2,0,0.3,0s0.2,0,0.3,0c0.2,0,0.4,0,0.7-0.1c0.2-0.1,0.5-0.1,0.7-0.1s0.4,0,0.6,0c0.2,0,0.4,0,0.6,0c0.2,0,0.4,0,0.7-0.1
		c0.2-0.1,0.4-0.1,0.7-0.1c0.1,0,0.2,0,0.3,0.1s0.2,0.1,0.3,0.1c0.2,0,0.4,0.1,0.6,0.2c0.2,0.1,0.4,0.3,0.6,0.4
		c0.2,0.2,0.4,0.4,0.5,0.6C43.8,86.3,43.8,86.4,43.8,86.6z"/>
	<path class="text" d="M74,77.2c0,0.1-0.1,0.2-0.2,0.2c-0.1,0.1-0.3,0.2-0.5,0.2c-0.2,0.1-0.4,0.1-0.5,0.1c-0.2,0-0.3,0-0.4,0l-2.1-0.2
		c-0.2,0-0.3,0.1-0.4,0.3c0,0.2-0.1,0.4-0.1,0.6v0.4c0,0.1,0,0.2-0.1,0.3s-0.1,0.2-0.1,0.3s0,0.3,0,0.6v0.6l-0.1,1l0.1,0.2l-0.2,0.7
		l0.1,0.3c0,0.5-0.1,0.9-0.2,1.4s-0.2,0.9-0.2,1.4c0,0.2,0,0.5,0,0.7s0,0.5,0,0.7c0.1,0.5,0.2,1,0.4,1.4c0.2,0.4,0.4,0.9,0.4,1.4
		c0,0.4-0.1,0.8-0.4,1.2s-0.6,0.5-1.1,0.5c-0.3,0-0.6-0.2-0.8-0.5c-0.2-0.3-0.4-0.7-0.5-1.1c-0.1-0.4-0.3-0.9-0.3-1.3
		c-0.1-0.4-0.1-0.8-0.1-1l-0.1-0.5l0.1-0.3l-0.1-1.7c0-0.2,0-0.4,0.1-0.5c0.1-0.2,0.1-0.4,0.1-0.6l-0.1-0.8l0.2-0.8v-0.5
		c0-0.1,0-0.2,0.1-0.3s0.1-0.1,0.1-0.2L67,81.1l0.3-2.3c0-0.1,0-0.3,0.1-0.4c0.1-0.1,0.1-0.3,0.1-0.5c0-0.4,0-0.7-0.1-0.8
		s-0.4-0.2-0.8-0.2l-0.8-0.1l-0.4,0.1l-0.3-0.1c-0.1,0-0.3,0-0.6,0c-0.3,0-0.6,0.1-0.9,0.1C63.3,77,63,77,62.8,77.1
		c-0.2,0.1-0.4,0.2-0.4,0.3c0,0.3-0.1,0.6-0.3,0.8c-0.2,0.2-0.3,0.5-0.4,0.7c-0.3,0.7-0.6,1.4-0.9,2c-0.3,0.7-0.6,1.3-0.8,2
		c-0.1,0.4-0.3,0.8-0.6,1.2c-0.2,0.4-0.5,0.8-0.7,1.2c-0.1,0.3-0.2,0.6-0.2,0.9s-0.1,0.6-0.2,0.9c-0.1,0.1-0.2,0.2-0.5,0.3
		s-0.5,0.2-0.6,0.2h-0.5c-0.2-0.3-0.4-0.7-0.6-1c-0.2-0.4-0.3-0.7-0.3-1.1c0-0.1,0-0.3,0.1-0.5s0.2-0.4,0.3-0.5
		c0.2-0.2,0.3-0.5,0.4-0.8s0.2-0.5,0.4-0.8c0,0,0.1-0.1,0.1-0.2c0.1-0.1,0.1-0.3,0.2-0.4c0.1-0.2,0.1-0.3,0.2-0.5s0.1-0.3,0.2-0.4
		c0.1-0.1,0.2-0.4,0.4-0.7c0.2-0.4,0.4-0.8,0.6-1.2s0.4-0.9,0.6-1.2c0.2-0.4,0.3-0.6,0.3-0.7c0-0.1-0.1-0.2-0.2-0.2s-0.2,0-0.3,0
		l-3.2,0.8c-0.1,0-0.3,0-0.3-0.1c-0.1-0.1-0.2-0.2-0.3-0.3c-0.4-0.3-0.6-0.6-0.7-0.9c-0.1-0.3-0.1-0.6-0.1-1.1
		c0-0.2,0.1-0.5,0.2-0.7c0.1,0,0.2-0.1,0.3-0.1c0.2-0.1,0.4-0.1,0.6-0.2c0.2-0.1,0.4-0.1,0.6-0.1s0.3-0.1,0.4-0.1l0.6,0.2h1.3
		l0.3-0.2c0.1,0,0.1,0,0.1,0.1l0.1,0.1c0.1,0,0.2,0,0.4,0c0.2,0,0.3,0,0.5-0.1c0.2,0,0.3-0.1,0.5-0.1s0.3-0.1,0.3-0.1
		c0.2-0.1,0.4-0.3,0.4-0.5c0.1-0.2,0.1-0.5,0.2-0.7c0.1-0.3,0.2-0.6,0.4-0.9c0.1-0.3,0.3-0.6,0.5-0.9c0.2-0.3,0.3-0.7,0.4-1
		s0.2-0.7,0.4-1c0.1-0.1,0.1-0.2,0.2-0.3s0.2-0.2,0.2-0.3c0.2-0.4,0.3-0.7,0.4-1.1c0.1-0.4,0.2-0.8,0.4-1.1c0.1-0.1,0.1-0.2,0.2-0.3
		s0.2-0.2,0.2-0.3c0.2-0.4,0.3-0.8,0.4-1.1c0.1-0.4,0.3-0.7,0.5-1.1c0.1-0.1,0.2-0.4,0.4-0.7s0.3-0.7,0.5-1s0.3-0.6,0.5-0.9
		c0.2-0.3,0.3-0.4,0.4-0.5c0.1,0,0.1,0,0.3,0h0.6c0.1,0,0.1,0,0.2-0.1c0-0.1,0.1-0.2,0.2-0.2c0.1-0.1,0.2-0.2,0.3-0.2
		c0.1-0.1,0.3-0.1,0.5-0.1c0.1,0,0.3,0.1,0.3,0.2c0.1,0.1,0.2,0.2,0.3,0.3c0.3,0.2,0.5,0.3,0.7,0.4c0.2,0.1,0.2,0.3,0.2,0.7
		s0,0.8-0.1,1.2c-0.1,0.3-0.1,0.6-0.1,0.9s0,0.6,0,0.9v1.1l0.1,0.2v1.2c0,0.1,0,0.2,0,0.3s-0.1,0.2-0.1,0.3V68c0,0.1,0,0.2,0.1,0.3
		c0,0.1,0.1,0.2,0.1,0.3l-0.1,1.8l-0.1,0.5l-0.3,3.5c0,0.2,0.1,0.3,0.2,0.3s0.3,0.1,0.4,0.1h0.4c0.2,0,0.4,0,0.6,0.1
		s0.4,0.2,0.6,0.2c0.5,0.1,0.8,0.2,1.1,0.5c0.3,0.3,0.4,0.7,0.4,1.1v0.5L74,77.2L74,77.2z M68.3,68.4l0.1-1.7c0-0.2,0-0.5,0-0.7
		s0-0.5-0.1-0.7l-0.2-0.1c-0.1,0.1-0.1,0.2-0.2,0.3s-0.1,0.2-0.1,0.3h-0.2v0.1c0,0.1,0,0.3-0.1,0.5s-0.2,0.4-0.3,0.5
		c-0.1,0.4-0.3,0.8-0.4,1.1c-0.1,0.4-0.3,0.7-0.6,1c-0.1,0.1-0.2,0.3-0.2,0.4c0,0.2,0,0.3-0.1,0.5c-0.1,0.1-0.1,0.3-0.2,0.4
		c-0.1,0.1-0.1,0.3-0.2,0.4L65.3,71c-0.3,0.6-0.6,1.2-0.9,1.7s-0.5,1.2-0.6,1.8c0.2,0.1,0.6,0.2,0.9,0.2h1.1c0.3,0,0.6,0,1,0
		c0.3,0,0.5,0,0.7-0.1h0.1l0.7-5.5L68.3,68.4z"/>
	<path class="text" d="M103.2,63.9c0,0.3,0,0.5-0.1,0.6s-0.1,0.3-0.2,0.3c-0.1,0.1-0.2,0.2-0.3,0.3c-0.1,0.1-0.2,0.2-0.3,0.4
		c-0.5,1.1-1,2.2-1.6,3.2c-0.5,1.1-1.2,2.1-1.9,3c-0.1,0.2-0.3,0.3-0.3,0.5c-0.1,0.2-0.2,0.3-0.4,0.5c-0.3,0.3-0.6,0.6-0.8,0.9
		c-0.1,0.1-0.1,0.2-0.1,0.3s-0.1,0.2-0.2,0.3c-0.2,0.1-0.3,0.3-0.4,0.4c-0.1,0.1-0.2,0.3-0.3,0.5c-0.1,0.1-0.1,0.1-0.2,0.2
		c-0.1,0-0.2,0.1-0.2,0.3v0.5c0,0.1,0.1,0.1,0.2,0.2c-0.1,0.1-0.2,0.2-0.2,0.4c0,0.1-0.1,0.3-0.2,0.3c-0.1,0.1-0.2,0.1-0.2,0.1
		c-0.1,0-0.2,0-0.2,0.1c-0.4,0.3-0.7,0.7-0.8,1.2c-0.1,0.5-0.2,1-0.4,1.4c-0.1,0.2-0.2,0.5-0.3,0.7c-0.1,0.2-0.2,0.4-0.2,0.7
		c-0.1,0.2-0.1,0.4-0.1,0.6c0,0.2,0,0.4-0.1,0.5c0,0.1-0.1,0.1-0.1,0.2c-0.1,0.1-0.1,0.1-0.1,0.2c0,0,0,0.1-0.1,0.3
		s-0.1,0.4-0.2,0.7c-0.1,0.2-0.2,0.5-0.2,0.7c-0.1,0.2-0.1,0.3-0.1,0.4c-0.2,0.4-0.4,0.7-0.6,1s-0.4,0.6-0.6,1
		c-0.2,0.5-0.4,0.9-0.5,1.2c-0.2,0.4-0.2,0.8-0.2,1.3v0.4c0,0.2,0,0.4-0.1,0.5s-0.2,0.3-0.2,0.5c-0.1,0.1-0.1,0.3-0.1,0.4
		c0,0.1-0.1,0.3-0.2,0.3c-0.2,0.1-0.5,0.2-0.7,0.2s-0.5,0-0.8,0c-0.2,0-0.4-0.1-0.6-0.2c-0.2-0.1-0.3-0.3-0.4-0.5c0-0.1,0-0.1,0-0.2
		c0-0.1,0-0.1,0-0.2c0-0.1-0.1-0.3-0.2-0.4c-0.1-0.2-0.2-0.4-0.2-0.7s0.1-0.5,0.2-0.7s0.3-0.4,0.4-0.7c0.1-0.1,0.1-0.2,0.1-0.3
		s0-0.2,0.1-0.3c0.1-0.2,0.1-0.4,0.3-0.6c0.1-0.2,0.2-0.4,0.3-0.6c0.1-0.3,0.2-0.5,0.2-0.6c0.1-0.1,0.2-0.1,0.2-0.2
		c0.1,0,0.2-0.1,0.3-0.1c0.1-0.1,0.2-0.2,0.3-0.5c0.2-0.5,0.3-1,0.5-1.6c0.1-0.5,0.3-1.1,0.5-1.6c0-0.1,0.1-0.3,0.2-0.6
		s0.2-0.7,0.3-1c0.1-0.4,0.2-0.7,0.3-1c0.1-0.3,0.1-0.5,0.1-0.6s-0.1-0.2-0.2-0.2s-0.3,0-0.3,0c-0.2,0-0.4-0.1-0.5-0.2
		c-0.1-0.1-0.3-0.2-0.4-0.3c-0.2-0.2-0.4-0.4-0.5-0.6c-0.1-0.2-0.3-0.5-0.5-0.7c-0.1-0.1-0.1-0.2-0.2-0.3c0-0.1-0.1-0.2-0.1-0.3
		c-0.2-0.4-0.4-0.8-0.5-1.2c-0.2-0.4-0.3-0.8-0.5-1.2c-0.1-0.3-0.2-0.6-0.2-0.9s0-0.6-0.1-1c-0.2-0.8-0.3-1.6-0.3-2.5
		c-0.1-0.9-0.1-1.7-0.1-2.5c0-0.3,0-0.5,0-0.8s0-0.5,0-0.8s0-0.5,0.1-0.8c0.1-0.2,0.1-0.5,0.1-0.8c0-0.1,0-0.1,0-0.2
		c0-0.1,0-0.1,0-0.2c0-0.2,0.1-0.4,0.2-0.6c0.1-0.1,0.2-0.3,0.4-0.4c0.1-0.1,0.1-0.1,0.1-0.2c0-0.1,0.1-0.1,0.2-0.1s0.2,0,0.2,0
		c0.1,0,0.1,0,0.2,0s0.1,0,0.2-0.1s0.1-0.1,0.1-0.1c0.5,0,0.9,0.2,1.2,0.6c0.3,0.4,0.4,0.8,0.4,1.3v0.8c0,0.2-0.1,0.4-0.3,0.6
		c-0.2,0.2-0.3,0.4-0.3,0.6V66c0,0.3,0,0.5-0.1,0.8c-0.1,0.2-0.1,0.5-0.1,0.8c0,0.1,0,0.2,0,0.2c0,0.1,0,0.2,0,0.2
		c0,0.1,0,0.2,0,0.3s0,0.2,0,0.3c0,0.7,0.1,1.3,0.2,1.9c0.2,0.6,0.2,1.3,0.2,1.9c0,0.1,0,0.2,0.1,0.3s0.1,0.1,0.2,0.2
		c0.1,0.1,0.1,0.3,0.2,0.5s0.2,0.4,0.3,0.6c0.1,0.2,0.2,0.4,0.4,0.5c0.1,0.1,0.3,0.2,0.4,0.2c0.2,0,0.4-0.1,0.5-0.3s0.2-0.4,0.3-0.6
		c0.1-0.2,0.2-0.4,0.3-0.6c0.1-0.2,0.3-0.3,0.5-0.3c0.1,0,0.1,0,0.2,0s0.1,0,0.2,0c0.3,0,0.6-0.1,0.7-0.4c0.2-0.3,0.3-0.5,0.5-0.7
		c0.3-0.4,0.6-0.7,0.9-1.1s0.6-0.7,0.9-1.1c0.4-0.5,0.7-0.9,1-1.4c0.3-0.4,0.6-0.9,0.8-1.5c0.1-0.2,0.2-0.3,0.3-0.4
		c0.1-0.1,0.2-0.3,0.2-0.5s0.1-0.4,0.2-0.5s0.2-0.3,0.3-0.4c0.3-0.5,0.4-1,0.4-1.4s0.1-0.9,0.1-1.4c0.1-0.1,0.3-0.3,0.4-0.4
		c0.1-0.1,0.3-0.3,0.3-0.5h1c0.2,0,0.4,0.1,0.6,0.2c0.1,0.1,0.3,0.3,0.4,0.5c0.1,0.1,0.3,0.3,0.4,0.4c0.2,0.1,0.2,0.3,0.2,0.5
		L103.2,63.9L103.2,63.9z"/>
	<path class="text" d="M130.9,64.6c0,0.2-0.1,0.4-0.2,0.6c-0.1,0.1-0.3,0.2-0.5,0.3s-0.4,0.1-0.7,0.1c-0.2,0-0.4,0-0.6,0c-0.3,0-0.5,0-0.6,0
		s-0.2,0.1-0.5,0.1c-0.6,0.1-1.2,0.1-1.8,0.2c-0.6,0.1-1.2,0.1-1.8,0.1c-0.1,0-0.2,0-0.2,0.1c-0.1,0-0.1,0.1-0.2,0.1h-0.4
		c-0.4,0-0.7,0.1-1,0.2c-0.3,0.1-0.6,0.2-1,0.3c-0.7,0.2-1.3,0.4-1.7,0.6c-0.4,0.2-0.7,0.5-1,0.9c-0.2,0.4-0.4,0.8-0.6,1.3
		s-0.3,1-0.5,1.7c-0.1,0.3-0.2,0.6-0.2,0.8c-0.1,0.2-0.1,0.5-0.1,0.8c0,0.4-0.1,0.7-0.3,1.1c-0.2,0.4-0.3,0.7-0.3,1.1
		c0,0.2,0.1,0.2,0.2,0.2c0.3,0,0.6-0.1,0.9-0.2s0.6-0.2,0.9-0.3c0.5-0.1,0.9-0.2,1.2-0.3c0.3-0.1,0.7-0.1,1.3-0.1c0.1,0,0.2,0,0.2,0
		c0.1,0,0.1,0,0.2-0.1c0.4-0.2,0.8-0.3,1.1-0.3c0.3-0.1,0.7-0.1,1.2-0.1s0.8,0.1,1.2,0.4c0.3,0.3,0.5,0.7,0.5,1.1
		c0,0.2-0.1,0.3-0.2,0.4c-0.2,0.1-0.3,0.2-0.4,0.2c-0.1,0.1-0.3,0.1-0.4,0.2c-0.1,0.1-0.2,0.2-0.4,0.2c-0.3,0.1-0.6,0.1-0.9,0.1
		s-0.6,0-0.9,0.1c-0.6,0.1-1.1,0.3-1.7,0.4c-0.6,0.1-1.1,0.3-1.6,0.5c-0.4,0.2-0.8,0.3-1.2,0.4c-0.4,0.1-0.8,0.3-1.2,0.5
		c-0.2,0.1-0.3,0.2-0.4,0.3s-0.2,0.2-0.3,0.4c-0.2,0.7-0.3,1.4-0.3,2.1c0,0.7-0.1,1.4-0.1,2.1c0,0.4,0,0.7-0.1,1s-0.1,0.6-0.1,0.9
		c0,0.2,0,0.4,0,0.7c0,0.2,0.1,0.4,0.2,0.6c0.8-0.4,1.5-0.7,2.2-1.1c0.7-0.4,1.4-0.8,2.1-1.2c0.5-0.3,1-0.6,1.5-0.9
		c0.5-0.3,1-0.6,1.5-0.8c0.2-0.1,0.4-0.3,0.6-0.5c0.1-0.2,0.4-0.3,0.7-0.3h0.1c0.2,0,0.4,0,0.5,0.1c0.2,0.1,0.3,0.1,0.5,0.1
		c0.1,0,0.2,0,0.4-0.1c0.1,0.2,0.3,0.4,0.5,0.6c0.2,0.2,0.3,0.4,0.3,0.7c0,0.1,0,0.1,0,0.2c0,0.1,0,0.1,0,0.2c0,0.3-0.1,0.5-0.3,0.7
		c-0.2,0.2-0.4,0.3-0.7,0.4c-0.3,0.1-0.5,0.2-0.8,0.3s-0.5,0.2-0.7,0.3c-0.5,0.3-0.9,0.5-1.4,0.8c-0.5,0.2-1,0.5-1.4,0.8
		c-0.6,0.4-1.2,0.7-1.8,1.1c-0.6,0.3-1.2,0.7-1.8,1.1c-0.4,0.2-0.7,0.5-1.1,0.7c-0.3,0.2-0.7,0.3-1.2,0.3s-0.9-0.1-1.3-0.4
		c-0.3-0.3-0.6-0.7-0.8-1.1c-0.2-0.4-0.3-0.9-0.4-1.4s-0.1-1-0.1-1.4c0-0.3,0-0.7,0-1.1c0-0.5,0.1-0.8,0.1-1.1c0-0.1,0-0.1,0-0.1
		v-0.1c0-0.1,0-0.2,0-0.3s0-0.2,0-0.3c0-0.6,0.1-1.2,0.2-1.8c0.2-0.6,0.2-1.3,0.2-2c0-0.2,0-0.4,0.1-0.6c0.1-0.2,0.1-0.4,0.1-0.6
		c0-0.1,0-0.2-0.1-0.2c-0.1-0.1-0.1-0.1-0.1-0.2v-0.5c0-0.2,0.1-0.4,0.2-0.5s0.3-0.3,0.3-0.5c0.1-0.4,0.2-0.7,0.2-0.9s0-0.5,0-0.9
		c0-0.2,0-0.4,0.1-0.5s0.1-0.3,0.2-0.5s0.1-0.4,0.1-0.7c0-0.2,0-0.5,0.1-0.7c0.1-0.6,0.4-1.3,0.7-2.1c0.3-0.7,0.4-1.4,0.4-2.1
		c0-0.1,0-0.3,0-0.4c0-0.1,0-0.2,0-0.4c0-0.1,0-0.3-0.1-0.4c-0.1-0.1-0.1-0.3-0.1-0.4c0-0.2,0.1-0.4,0.3-0.4
		c0.2-0.1,0.4-0.1,0.5-0.2c0.2-0.1,0.5-0.3,0.7-0.4c0.2-0.2,0.4-0.3,0.7-0.3h0.4c0.1,0,0.1,0,0.2-0.1c0.1,0,0.1-0.1,0.2-0.1
		s0.1,0,0.1,0.1l0.1,0.1c0.4,0,0.8,0,1.2-0.1c0.4-0.1,0.7-0.2,1.1-0.3s0.8-0.2,1.1-0.3c0.4-0.1,0.8-0.2,1.2-0.2c0.3,0,0.5,0,0.8-0.1
		s0.5-0.1,0.8-0.1h1.3c0.3,0,0.6-0.1,0.9-0.2c0.3-0.1,0.6-0.2,0.9-0.2h0.6c0.1,0,0.1,0,0.1,0h0.1c0.2,0,0.3,0,0.4,0.1s0.3,0.1,0.4,0
		c0,0.2,0,0.3,0.1,0.4c0.1-0.1,0.2-0.1,0.4-0.1s0.2,0.1,0.2,0.2s0,0.2,0.1,0.3c0.1,0.2,0.2,0.3,0.3,0.4
		C130.8,64.2,130.9,64.4,130.9,64.6L130.9,64.6z"/>
	<path class="text" d="M157.9,85.8c0,0.3,0,0.5-0.1,0.7s-0.2,0.4-0.5,0.6c-0.1,0.1-0.3,0.2-0.3,0.3c-0.1,0.1-0.2,0.2-0.4,0.2H156
		c-0.3,0-0.5-0.1-0.7-0.3s-0.3-0.4-0.4-0.6c-0.2-0.4-0.4-0.8-0.6-1.1c-0.2-0.4-0.4-0.7-0.7-1.1c-0.4-0.6-0.8-1.3-1.3-2
		c-0.4-0.7-0.9-1.3-1.3-2c-0.5-0.7-0.9-1.3-1.5-1.9c-0.5-0.6-1.1-1.2-1.7-1.6c-0.2-0.1-0.3-0.2-0.5-0.2s-0.4-0.1-0.5-0.2
		c-0.3-0.3-0.5-0.6-0.8-0.9c-0.2-0.4-0.4-0.7-0.7-1c-0.3,0.4-0.4,0.8-0.4,1.2s-0.1,0.9-0.2,1.3c-0.1,0.2-0.1,0.4-0.2,0.5
		c-0.1,0.2-0.1,0.4-0.1,0.6c0,0.1,0,0.1,0,0.1v0.1c0,0.2-0.1,0.5-0.2,0.6c-0.1,0.2-0.2,0.4-0.2,0.6c0,0.9-0.1,1.7-0.3,2.5
		s-0.3,1.6-0.3,2.5c0,0.2,0,0.4,0.1,0.6c0.1,0.2,0.1,0.4,0.1,0.7c0,0.2,0,0.5-0.1,0.7c0,0.3-0.1,0.5-0.2,0.7s-0.2,0.4-0.4,0.5
		c-0.2,0.1-0.4,0.2-0.7,0.2h-0.4c-0.1,0-0.3,0-0.3-0.1c-0.1-0.1-0.2-0.1-0.3-0.1c-0.1,0-0.2,0-0.2-0.1s-0.1-0.2-0.1-0.3
		c-0.1-0.2-0.2-0.5-0.3-0.6c-0.1-0.2-0.1-0.4-0.1-0.7c0-0.2,0-0.3-0.1-0.5s-0.1-0.3-0.1-0.5c0-0.4,0.1-0.8,0.2-1.2s0.2-0.8,0.2-1.2
		c0-0.1,0-0.1,0-0.2c0-0.1,0-0.1,0-0.2c0-0.2,0-0.4,0.1-0.5s0.1-0.3,0.2-0.5c0.1-0.4,0.1-0.8,0.1-1.2s0.1-0.8,0.2-1.2
		s0.2-0.8,0.4-1.1c0.1-0.4,0.2-0.8,0.2-1.2c0-0.5,0-0.8,0.1-1.1s0.2-0.6,0.3-1c0.1-0.5,0.2-0.9,0.2-1.4s0.1-0.9,0.2-1.4
		c0.1-0.3,0.2-0.6,0.2-0.9s0.1-0.6,0.1-0.9c0-0.5-0.1-1-0.4-1.5s-0.4-1-0.4-1.5c0-0.1,0-0.2,0.1-0.2c0.1-0.1,0.1-0.2,0.1-0.2
		c0.1-0.2,0.1-0.4,0.1-0.6c0-0.2,0-0.4,0.1-0.5c0-0.1,0.1-0.1,0.3-0.3c0.2-0.1,0.4-0.3,0.7-0.4c0.2-0.1,0.5-0.2,0.7-0.3
		s0.4-0.2,0.4-0.2c0.2-0.1,0.4-0.1,0.5-0.2c0.1-0.1,0.3-0.2,0.5-0.3c0.5-0.3,0.9-0.5,1.3-0.7s0.9-0.3,1.5-0.5h0.1h0.1
		c0.1,0,0.2,0,0.2,0c0.1,0,0.1,0,0.2,0s0.2,0,0.3-0.1c0.1-0.1,0.2-0.1,0.3-0.1c0.2,0,0.3,0,0.5,0.1c0.1,0,0.3,0.1,0.5,0.1
		c0.4,0,0.9,0.1,1.5,0.4c0.6,0.3,1,0.6,1.3,0.9c0.3,0.4,0.6,0.7,0.9,1s0.4,0.7,0.4,1.2c0,0.9-0.2,1.8-0.6,2.6s-0.8,1.6-1.1,2.4
		c-0.1,0.2-0.2,0.4-0.4,0.5c-0.2,0.1-0.3,0.3-0.4,0.4c-0.2,0.4-0.4,0.6-0.5,0.9c-0.1,0.2-0.4,0.5-0.7,0.8c-0.1,0.1-0.1,0.1-0.3,0.2
		c-0.1,0.1-0.2,0.2-0.4,0.3c-0.1,0.1-0.2,0.2-0.3,0.3c-0.1,0.1-0.1,0.2-0.1,0.2c0,0.2,0.1,0.3,0.2,0.4c0.1,0.1,0.3,0.2,0.4,0.4
		c0.7,0.7,1.3,1.4,1.9,2.2s1.2,1.6,1.6,2.4c0.3,0.5,0.6,1,0.9,1.5s0.6,0.9,1,1.4c0.2,0.2,0.4,0.4,0.6,0.6c0.2,0.2,0.4,0.4,0.7,0.5
		c0.2,0.2,0.4,0.4,0.5,0.6C157.8,85.2,157.9,85.5,157.9,85.8z M151.6,66.4c0-0.4-0.2-0.7-0.5-0.9c-0.4-0.1-0.7-0.2-1.1-0.2
		c-0.2,0-0.4,0-0.6,0s-0.4,0.1-0.6,0.1c-0.1,0.1-0.3,0.1-0.4,0.3c-0.1,0.1-0.2,0.2-0.4,0.3c-0.2,0.1-0.4,0.2-0.5,0.3
		c-0.2,0.1-0.3,0.3-0.3,0.5c0,0.1,0,0.2,0.1,0.4s0.1,0.4,0.1,0.6c0,0.6-0.2,1.1-0.5,1.5c-0.1,0.1-0.2,0.2-0.3,0.3
		c-0.1,0.1-0.2,0.2-0.3,0.3c-0.2,0.2-0.3,0.4-0.3,0.7c0,0.2-0.1,0.5-0.1,0.8c-0.1,0.3-0.1,0.6-0.2,0.9c-0.1,0.3-0.2,0.6-0.2,0.9
		c0,0.1,0,0.2,0.1,0.3c0.2-0.2,0.3-0.3,0.4-0.4c0.1-0.1,0.1-0.2,0.2-0.2s0.2-0.1,0.3-0.1c0.1,0,0.3,0,0.6,0c0.5,0,0.9-0.2,1.3-0.6
		c0.4-0.4,0.7-0.8,1-1.1c0.4-0.4,0.7-0.9,1-1.4s0.5-1,0.9-1.4c0.1-0.2,0.2-0.4,0.2-0.6c0-0.2,0.1-0.4,0.2-0.6v-0.7L151.6,66.4
		L151.6,66.4z"/>
	<path class="text" d="M182.4,66.1c-0.1,0.1-0.2,0.3-0.2,0.8s-0.2,0.8-0.5,1s-0.7,0.4-1,0.6c-0.1,0.1-0.2,0.1-0.2,0.2c-0.1,0.1-0.2,0.1-0.3,0.1
		c-0.2,0-0.3-0.1-0.4-0.2c-0.1-0.1-0.2-0.2-0.4-0.2c0.1-0.1,0.1-0.2,0.2-0.3s0.1-0.2,0.1-0.3v-0.5c0-0.1,0-0.1,0.1-0.2
		c0-0.1,0.1-0.1,0.1-0.2v-0.7c0-0.2,0.1-0.3,0.2-0.3c0.1-0.1,0.2-0.2,0.2-0.3c0-0.3-0.1-0.6-0.3-0.9c-0.2-0.3-0.4-0.4-0.8-0.4
		c-0.1,0-0.1,0-0.1-0.1l-0.1-0.1c-0.2,0-0.4,0.1-0.5,0.2c-0.1,0.2-0.3,0.3-0.4,0.4c-0.2,0.2-0.3,0.4-0.4,0.6
		c-0.1,0.2-0.2,0.4-0.3,0.7c-0.3,0.6-0.4,1.2-0.4,1.6s0,1,0,1.7c0,0.6,0.1,1.2,0.2,1.6s0.3,1,0.5,1.5c0.1,0.4,0.2,0.7,0.3,1.1
		c0.1,0.4,0.2,0.7,0.4,1.1c0.1,0.2,0.2,0.4,0.3,0.7c0.1,0.2,0.2,0.4,0.3,0.7c0.2,0.4,0.3,0.7,0.5,1s0.3,0.6,0.5,1
		c0.1,0.2,0.2,0.4,0.2,0.7c0.1,0.2,0.2,0.4,0.2,0.7c0.1,0.1,0.1,0.2,0.2,0.3s0.1,0.2,0.1,0.3v0.6c0,0.1,0,0.2,0.1,0.2
		c0,0.1,0.1,0.2,0.1,0.2v1.1c0,0.2,0,0.4-0.1,0.6c0,0.2-0.1,0.4-0.1,0.6c0,0.1,0,0.2-0.1,0.2c-0.1,0.1-0.1,0.2-0.1,0.3
		c-0.1,0.4-0.2,0.7-0.3,0.9c-0.1,0.2-0.3,0.5-0.5,0.8c-0.6,0.8-1.3,1.5-2.1,2.2c-0.8,0.7-1.7,1-2.8,1c-0.2,0-0.4,0-0.6,0
		s-0.4,0-0.6,0c-0.3,0-0.6-0.1-0.8-0.2c-0.2-0.1-0.5-0.2-0.8-0.3c-0.9-0.4-1.6-0.8-2.2-1.4c-0.6-0.6-1.2-1.2-1.7-2
		c-0.1-0.1-0.3-0.2-0.4-0.3s-0.3-0.2-0.4-0.3s-0.1-0.2-0.1-0.3s0-0.2-0.1-0.3c0-0.1-0.1-0.1-0.1-0.2c-0.1-0.1-0.1-0.1-0.1-0.2
		c0-0.1,0-0.2,0.1-0.2c0-0.1,0.1-0.1,0.1-0.2c0-0.1,0-0.1,0-0.2c0-0.1,0-0.1,0-0.2c0-0.2,0.1-0.3,0.2-0.4c0.1-0.1,0.2-0.2,0.4-0.2
		c0.2,0,0.3-0.1,0.5-0.1s0.3-0.1,0.4-0.1s0.1-0.1,0.2-0.1c0.1-0.1,0.1-0.1,0.2-0.1c0.3,0,0.6,0.1,0.8,0.3c0.2,0.2,0.3,0.5,0.4,0.8
		c0.1,0.1,0.1,0.3,0.1,0.4c0,0.1,0,0.3,0.1,0.4c0.1,0.2,0.2,0.4,0.4,0.5c0.2,0.1,0.3,0.3,0.5,0.5s0.4,0.4,0.6,0.5s0.5,0.3,0.7,0.4
		c0.4,0.2,0.7,0.4,1,0.5s0.7,0.2,1.1,0.2c0.3,0,0.5-0.1,0.8-0.2c0.2-0.1,0.4-0.3,0.6-0.4c0.7-0.5,1.2-1,1.6-1.6s0.5-1.3,0.5-2.2
		c0-0.4,0-0.7,0-0.9c0-0.3-0.1-0.6-0.2-0.9c-0.1-0.2-0.2-0.5-0.4-0.7c-0.1-0.2-0.2-0.5-0.2-0.8c0-0.4-0.1-0.7-0.3-0.9
		c-0.2-0.2-0.4-0.5-0.6-0.8c-0.1-0.2-0.3-0.6-0.4-1.1c-0.2-0.5-0.4-1.1-0.6-1.7c-0.2-0.6-0.4-1.2-0.5-1.7s-0.2-0.9-0.2-1.1
		c0-0.1,0-0.2-0.1-0.2c0-0.1-0.1-0.1-0.1-0.2c-0.1-0.5-0.1-1-0.1-1.5s0-1,0-1.5c0-0.4,0-0.7,0.1-0.9s0.1-0.5,0.3-0.9
		c0.1-0.2,0.1-0.3,0.1-0.5s0.1-0.3,0.2-0.5s0.2-0.4,0.5-0.8c0.2-0.3,0.5-0.6,0.8-0.9c0.3-0.3,0.6-0.5,1-0.8c0.3-0.2,0.6-0.3,0.8-0.3
		c0.1,0,0.2,0,0.3,0c0.1,0,0.2,0,0.3,0c0.2,0,0.3,0,0.5-0.1c0.1,0,0.3-0.1,0.4-0.1c0.4,0,0.8,0.1,1.1,0.2s0.6,0.4,0.9,0.7
		s0.6,0.6,0.9,0.9c0.3,0.3,0.5,0.7,0.5,1.2v1.4C182.6,65.9,182.5,66,182.4,66.1z"/>
</g>
<g>
	<path class="text" d="M728.7,22.3c0,0.1,0,0.3-0.1,0.4c-0.1,0.1-0.1,0.2-0.1,0.4v0.6c0,0.3-0.1,0.6-0.3,0.8s-0.5,0.4-0.8,0.5s-0.6,0.3-0.9,0.4
		c-0.3,0.1-0.6,0.3-0.8,0.5c-0.3,0.3-0.5,0.5-0.7,0.8s-0.4,0.5-0.7,0.8c-0.2,0.2-0.4,0.4-0.6,0.6c-0.2,0.1-0.4,0.4-0.5,0.7
		c-0.2,0.3-0.4,0.5-0.6,0.7c-0.2,0.2-0.4,0.5-0.6,0.7c-0.3,0.3-0.5,0.7-0.7,1c-0.2,0.4-0.4,0.7-0.7,1c-0.2,0.3-0.4,0.5-0.5,0.7
		c-0.2,0.2-0.3,0.5-0.5,0.8c-0.1,0.1-0.2,0.2-0.3,0.3s-0.2,0.2-0.2,0.4c0,0.4,0.1,0.8,0.4,1.1c0.3,0.3,0.4,0.7,0.6,1
		c0.3,1.1,0.7,2.1,1.2,3.1s0.9,2,1.4,3c0.2,0.4,0.3,0.7,0.4,1.1c0.1,0.4,0.3,0.7,0.5,1c0.3,0.5,0.6,1,0.9,1.4
		c0.3,0.4,0.5,0.9,0.5,1.6c0,0.5-0.2,1-0.6,1.4c-0.4,0.4-0.8,0.6-1.4,0.6c-0.1,0-0.1,0-0.2-0.1c-0.1-0.1-0.1-0.1-0.2-0.1h-0.4
		c-0.5,0-0.8-0.2-1-0.7c-0.2-0.4-0.3-0.8-0.4-1.2c0-0.2-0.1-0.3-0.2-0.4c-0.1-0.1-0.2-0.2-0.2-0.4c-0.2-1.2-0.5-2.3-1-3.3
		s-0.9-2.1-1.4-3.2c-0.2-0.5-0.3-0.9-0.4-1.4c-0.1-0.4-0.3-0.8-0.8-1.2c-0.3,0.3-0.5,0.5-0.7,0.8s-0.3,0.5-0.5,0.9
		c-0.1,0.2-0.2,0.3-0.4,0.5s-0.2,0.3-0.2,0.5c0,0.3-0.1,0.5-0.4,0.7c-0.3,0.2-0.5,0.4-0.6,0.7c-0.2,0.4-0.4,0.8-0.6,1.2
		c-0.2,0.4-0.4,0.8-0.7,1.2c-0.2,0.4-0.4,0.7-0.6,1.1c-0.2,0.4-0.4,0.7-0.6,1.1c-0.2,0.3-0.3,0.5-0.5,0.8s-0.3,0.5-0.5,0.8
		c-0.2,0.5-0.4,0.9-0.7,1.3c-0.2,0.4-0.5,0.8-0.8,1.3c-0.1,0.2-0.2,0.4-0.4,0.6c-0.2,0.2-0.3,0.4-0.4,0.6c0,0.1,0,0.2-0.1,0.4
		c0,0.2-0.1,0.4-0.2,0.6c-0.1,0.2-0.1,0.4-0.1,0.6c0,0.2-0.1,0.3-0.1,0.3s-0.2,0.1-0.4,0.2c-0.2,0.1-0.4,0.1-0.6,0.2
		c-0.2,0.1-0.4,0.2-0.6,0.2s-0.3,0.1-0.4,0.1c-0.2,0-0.4-0.1-0.7-0.3c-0.2-0.2-0.5-0.4-0.7-0.7s-0.4-0.5-0.5-0.8s-0.2-0.5-0.2-0.7
		c0-0.4,0.1-0.8,0.4-1.1c0.3-0.3,0.5-0.6,0.8-0.9c0.3-0.4,0.6-0.9,0.8-1.3c0.2-0.4,0.5-0.9,0.8-1.4c0.1-0.2,0.2-0.3,0.4-0.4
		c0.2-0.1,0.3-0.3,0.3-0.4c0.2-0.3,0.3-0.7,0.5-1.1c0.1-0.4,0.3-0.7,0.5-1.1c0.2-0.3,0.4-0.5,0.6-0.8c0.2-0.2,0.4-0.5,0.6-0.8
		c0.3-0.5,0.5-1,0.8-1.4s0.6-0.9,0.8-1.4c0.2-0.3,0.3-0.6,0.5-0.9c0.2-0.3,0.3-0.6,0.5-0.9c0.4-0.5,0.7-1.1,1-1.6s0.6-1,0.9-1.6
		c0.1-0.2,0.3-0.4,0.5-0.6c0.2-0.2,0.3-0.4,0.3-0.7c0-0.4-0.1-0.7-0.4-1c-0.2-0.3-0.4-0.5-0.6-0.9c-0.2-0.4-0.5-0.9-0.9-1.5
		c-0.4-0.5-0.8-1.1-1.2-1.6s-0.9-1-1.4-1.4s-0.9-0.7-1.4-1c-0.2-0.1-0.3-0.1-0.5-0.2c-0.2-0.1-0.3-0.2-0.4-0.4
		c-0.1-0.2-0.1-0.4-0.1-0.6c0-0.2,0-0.4-0.1-0.6c-0.1-0.1-0.1-0.2-0.2-0.3c-0.1-0.1-0.1-0.2-0.1-0.4c0-0.4,0.1-0.7,0.2-0.9
		c0.1-0.2,0.3-0.4,0.6-0.7c0.1-0.1,0.1-0.2,0.2-0.3c0-0.2,0.1-0.2,0.3-0.2c0.3,0,0.6,0.1,0.8,0.3s0.5,0.3,0.8,0.3
		c0.1,0,0.1,0,0.1-0.1c0,0,0-0.1,0.1-0.1c0.3,0,0.5,0.1,0.6,0.4c0.1,0.3,0.3,0.5,0.5,0.7s0.3,0.3,0.4,0.5c0.1,0.2,0.2,0.4,0.4,0.6
		c0.2,0.3,0.5,0.6,0.8,0.8s0.6,0.5,0.8,0.9c0.1,0.2,0.3,0.4,0.5,0.6c0.2,0.1,0.4,0.3,0.5,0.5c0.4,0.5,0.7,1.1,1,1.7
		c0.3,0.6,0.6,1.1,1.1,1.6h0.2c0.2-0.5,0.5-0.9,0.8-1.3c0.3-0.4,0.6-0.7,0.9-1.1c0.7-0.9,1.4-1.9,2.1-2.8c0.7-0.9,1.5-1.8,2.3-2.6
		c0.1-0.1,0.3-0.3,0.5-0.6s0.4-0.5,0.6-0.8c0.2-0.3,0.4-0.5,0.6-0.7c0.2-0.2,0.4-0.3,0.6-0.3c0.3,0,0.5,0.1,0.7,0.2
		c0.2,0.1,0.4,0.2,0.6,0.3c0.3,0.1,0.6,0.3,0.8,0.4c0.2,0.1,0.4,0.3,0.6,0.6c0.1,0.1,0.1,0.2,0.2,0.3
		C728.6,22.1,728.7,22.2,728.7,22.3z"/>
</g>
<g>
	<path class="text" d="M223.7,78.1c0,0.3,0,0.5-0.1,0.7s-0.1,0.4-0.1,0.7c0,0.4-0.1,0.8-0.3,1.2c-0.2,0.3-0.4,0.7-0.4,1.1
		c-0.2,0.9-0.5,1.5-0.8,2.1c-0.3,0.5-0.7,1.2-1.1,1.9c-0.1,0.1-0.1,0.3-0.1,0.4c0,0.1,0,0.3-0.1,0.4c-0.1,0.3-0.3,0.6-0.5,0.8
		s-0.4,0.5-0.6,0.7c-0.5,0.6-1,1.1-1.5,1.6c-0.5,0.4-1.2,0.7-2.1,0.7c-0.1,0-0.1,0-0.2-0.1c0,0-0.1-0.1-0.2-0.1
		c-0.4,0-0.7,0.1-1.1,0.3s-0.7,0.3-1.1,0.3s-0.8-0.1-1.1-0.4c-0.3-0.2-0.6-0.5-0.8-0.8c-0.4-0.5-0.8-0.9-1.2-1.4
		c-0.4-0.4-0.8-0.9-1.2-1.4c-0.5-0.6-0.9-1.1-1.4-1.5s-0.9-1-1.2-1.7c-0.1-0.3-0.3-0.5-0.5-0.7s-0.3-0.5-0.3-0.8V81
		c0-0.6,0.1-1,0.2-1.4s0.3-0.8,0.5-1.3s0.4-0.9,0.4-1.4c0.1-0.4,0.3-0.9,0.6-1.3c0.3-0.5,0.8-0.9,1.4-1.2c0.6-0.4,1-0.7,1.2-1.1
		c0.1-0.1,0.1-0.2,0.1-0.3s0-0.2,0.1-0.3c0.3-0.4,0.7-0.7,1.3-1c0.6-0.3,1.1-0.6,1.5-0.9c0.7-0.6,1.4-1.1,2.1-1.6
		c0.7-0.4,1.5-0.7,2.5-0.7c1.1,0,2,0.3,2.7,0.9c0.7,0.6,1.3,1.4,1.7,2.3c0.3,0.5,0.6,1,0.9,1.4s0.4,1,0.4,1.6v0.9
		c0,0.5,0.1,0.9,0.2,1.3C223.7,77.2,223.7,77.6,223.7,78.1z"/>
</g>
<path class="st0" d="M230.5,70.5C276,50.9,346,4.2,402.2,4"/>
<path class="st1" d="M415.2,4.8c56.2,6.4,118,49.6,76.4,59.8"/>
<path class="st2" d="M478.6,66.4c-44.5,2.6-39.4-38.6,30.1-48.9"/>
<path class="st3" d="M521.9,15.8c72.1-8.2,150.7-11.6,173.6,10"/>
<path class="st4" d="M223.4,73.4c1-0.4,2-0.8,3.1-1.2 M404.4,4c1.1,0,2.2,0.1,3.3,0.1c1.1,0.1,2.1,0.1,3.2,0.2 M489.5,65
	c-1,0.2-2.1,0.4-3.2,0.6c-1.1,0.2-2.2,0.3-3.3,0.4 M510.9,17.1c1.1-0.1,2.2-0.3,3.3-0.4c1.1-0.1,2.2-0.3,3.3-0.4 M697.1,27.4
	c0.8,0.9,1.4,1.7,2,2.7"/>
</svg>
