<?xml version="1.0" encoding="UTF-8" standalone="no"?>
<svg
   xmlns:dc="http://purl.org/dc/elements/1.1/"
   xmlns:cc="http://creativecommons.org/ns#"
   xmlns:rdf="http://www.w3.org/1999/02/22-rdf-syntax-ns#"
   xmlns:svg="http://www.w3.org/2000/svg"
   xmlns="http://www.w3.org/2000/svg"
   xmlns:sodipodi="http://sodipodi.sourceforge.net/DTD/sodipodi-0.dtd"
   xmlns:inkscape="http://www.inkscape.org/namespaces/inkscape"
   version="1.1"
   id="Layer_1"
   x="0px"
   y="0px"
   viewBox="0 0 88.391249 560.65003"
   xml:space="preserve"
   sodipodi:docname="vertical-banner.svg"
   width="88.391251"
   height="560.65002"
   inkscape:version="1.0.1 (3bc2e813f5, 2020-09-07)"><metadata
   id="metadata65"><rdf:RDF><cc:Work
       rdf:about=""><dc:format>image/svg+xml</dc:format><dc:type
         rdf:resource="http://purl.org/dc/dcmitype/StillImage" /><dc:title></dc:title></cc:Work></rdf:RDF></metadata><defs
   id="defs63" /><sodipodi:namedview
   pagecolor="#2affff"
   bordercolor="#666666"
   borderopacity="1"
   objecttolerance="10"
   gridtolerance="10"
   guidetolerance="10"
   inkscape:pageopacity="0"
   inkscape:pageshadow="2"
   inkscape:window-width="1920"
   inkscape:window-height="1017"
   id="namedview61"
   showgrid="false"
   fit-margin-top="0.9"
   fit-margin-left="0"
   fit-margin-right="0"
   fit-margin-bottom="0"
   inkscape:zoom="1.0751671"
   inkscape:cx="10.466802"
   inkscape:cy="320.0435"
   inkscape:window-x="-8"
   inkscape:window-y="-8"
   inkscape:window-maximized="1"
   inkscape:current-layer="Layer_1" />
<style
   type="text/css"
   id="style2">
	.st0{fill:none;stroke:#000000;stroke-width:2.1825;stroke-linecap:round;stroke-dasharray:6.614,4.4315;}
	.st1{fill:none;stroke:#000000;stroke-width:2.1825;stroke-linecap:round;stroke-dasharray:6.4245,4.242;}
	.st2{fill:none;stroke:#000000;stroke-width:2.1825;stroke-linecap:round;stroke-dasharray:6.6148,4.4323;}
	.st3{fill:none;stroke:#000000;stroke-width:2.1825;stroke-linecap:round;stroke-dasharray:6.6928,4.5103;}
	.st4{fill:none;stroke:#000000;stroke-width:2.1825;stroke-linecap:round;}
	.text{
	  fill: #ffffff; stroke:#ffffff;
	}
</style>









<g
   id="g919"
   transform="translate(0,16)"><g
     id="g44"
     transform="translate(-662.05,473.75)">
	<path
   class="text"
   d="m 728.7,22.3 c 0,0.1 0,0.3 -0.1,0.4 -0.1,0.1 -0.1,0.2 -0.1,0.4 v 0.6 c 0,0.3 -0.1,0.6 -0.3,0.8 -0.2,0.2 -0.5,0.4 -0.8,0.5 -0.3,0.1 -0.6,0.3 -0.9,0.4 -0.3,0.1 -0.6,0.3 -0.8,0.5 -0.3,0.3 -0.5,0.5 -0.7,0.8 -0.2,0.3 -0.4,0.5 -0.7,0.8 -0.2,0.2 -0.4,0.4 -0.6,0.6 -0.2,0.1 -0.4,0.4 -0.5,0.7 -0.2,0.3 -0.4,0.5 -0.6,0.7 -0.2,0.2 -0.4,0.5 -0.6,0.7 -0.3,0.3 -0.5,0.7 -0.7,1 -0.2,0.4 -0.4,0.7 -0.7,1 -0.2,0.3 -0.4,0.5 -0.5,0.7 -0.2,0.2 -0.3,0.5 -0.5,0.8 -0.1,0.1 -0.2,0.2 -0.3,0.3 -0.1,0.1 -0.2,0.2 -0.2,0.4 0,0.4 0.1,0.8 0.4,1.1 0.3,0.3 0.4,0.7 0.6,1 0.3,1.1 0.7,2.1 1.2,3.1 0.5,1 0.9,2 1.4,3 0.2,0.4 0.3,0.7 0.4,1.1 0.1,0.4 0.3,0.7 0.5,1 0.3,0.5 0.6,1 0.9,1.4 0.3,0.4 0.5,0.9 0.5,1.6 0,0.5 -0.2,1 -0.6,1.4 -0.4,0.4 -0.8,0.6 -1.4,0.6 -0.1,0 -0.1,0 -0.2,-0.1 -0.1,-0.1 -0.1,-0.1 -0.2,-0.1 h -0.4 c -0.5,0 -0.8,-0.2 -1,-0.7 -0.2,-0.4 -0.3,-0.8 -0.4,-1.2 0,-0.2 -0.1,-0.3 -0.2,-0.4 -0.1,-0.1 -0.2,-0.2 -0.2,-0.4 -0.2,-1.2 -0.5,-2.3 -1,-3.3 -0.5,-1 -0.9,-2.1 -1.4,-3.2 -0.2,-0.5 -0.3,-0.9 -0.4,-1.4 -0.1,-0.4 -0.3,-0.8 -0.8,-1.2 -0.3,0.3 -0.5,0.5 -0.7,0.8 -0.2,0.3 -0.3,0.5 -0.5,0.9 -0.1,0.2 -0.2,0.3 -0.4,0.5 -0.2,0.2 -0.2,0.3 -0.2,0.5 0,0.3 -0.1,0.5 -0.4,0.7 -0.3,0.2 -0.5,0.4 -0.6,0.7 -0.2,0.4 -0.4,0.8 -0.6,1.2 -0.2,0.4 -0.4,0.8 -0.7,1.2 -0.2,0.4 -0.4,0.7 -0.6,1.1 -0.2,0.4 -0.4,0.7 -0.6,1.1 -0.2,0.3 -0.3,0.5 -0.5,0.8 -0.2,0.3 -0.3,0.5 -0.5,0.8 -0.2,0.5 -0.4,0.9 -0.7,1.3 -0.2,0.4 -0.5,0.8 -0.8,1.3 -0.1,0.2 -0.2,0.4 -0.4,0.6 -0.2,0.2 -0.3,0.4 -0.4,0.6 0,0.1 0,0.2 -0.1,0.4 0,0.2 -0.1,0.4 -0.2,0.6 -0.1,0.2 -0.1,0.4 -0.1,0.6 0,0.2 -0.1,0.3 -0.1,0.3 0,0 -0.2,0.1 -0.4,0.2 -0.2,0.1 -0.4,0.1 -0.6,0.2 -0.2,0.1 -0.4,0.2 -0.6,0.2 -0.2,0 -0.3,0.1 -0.4,0.1 -0.2,0 -0.4,-0.1 -0.7,-0.3 -0.2,-0.2 -0.5,-0.4 -0.7,-0.7 -0.2,-0.3 -0.4,-0.5 -0.5,-0.8 -0.1,-0.3 -0.2,-0.5 -0.2,-0.7 0,-0.4 0.1,-0.8 0.4,-1.1 0.3,-0.3 0.5,-0.6 0.8,-0.9 0.3,-0.4 0.6,-0.9 0.8,-1.3 0.2,-0.4 0.5,-0.9 0.8,-1.4 0.1,-0.2 0.2,-0.3 0.4,-0.4 0.2,-0.1 0.3,-0.3 0.3,-0.4 0.2,-0.3 0.3,-0.7 0.5,-1.1 0.1,-0.4 0.3,-0.7 0.5,-1.1 0.2,-0.3 0.4,-0.5 0.6,-0.8 0.2,-0.2 0.4,-0.5 0.6,-0.8 0.3,-0.5 0.5,-1 0.8,-1.4 0.3,-0.4 0.6,-0.9 0.8,-1.4 0.2,-0.3 0.3,-0.6 0.5,-0.9 0.2,-0.3 0.3,-0.6 0.5,-0.9 0.4,-0.5 0.7,-1.1 1,-1.6 0.3,-0.5 0.6,-1 0.9,-1.6 0.1,-0.2 0.3,-0.4 0.5,-0.6 0.2,-0.2 0.3,-0.4 0.3,-0.7 0,-0.4 -0.1,-0.7 -0.4,-1 -0.2,-0.3 -0.4,-0.5 -0.6,-0.9 -0.2,-0.4 -0.5,-0.9 -0.9,-1.5 -0.4,-0.5 -0.8,-1.1 -1.2,-1.6 -0.4,-0.5 -0.9,-1 -1.4,-1.4 -0.5,-0.4 -0.9,-0.7 -1.4,-1 -0.2,-0.1 -0.3,-0.1 -0.5,-0.2 -0.2,-0.1 -0.3,-0.2 -0.4,-0.4 -0.1,-0.2 -0.1,-0.4 -0.1,-0.6 0,-0.2 0,-0.4 -0.1,-0.6 -0.1,-0.1 -0.1,-0.2 -0.2,-0.3 -0.1,-0.1 -0.1,-0.2 -0.1,-0.4 0,-0.4 0.1,-0.7 0.2,-0.9 0.1,-0.2 0.3,-0.4 0.6,-0.7 0.1,-0.1 0.1,-0.2 0.2,-0.3 0,-0.2 0.1,-0.2 0.3,-0.2 0.3,0 0.6,0.1 0.8,0.3 0.2,0.2 0.5,0.3 0.8,0.3 0.1,0 0.1,0 0.1,-0.1 0,0 0,-0.1 0.1,-0.1 0.3,0 0.5,0.1 0.6,0.4 0.1,0.3 0.3,0.5 0.5,0.7 0.2,0.2 0.3,0.3 0.4,0.5 0.1,0.2 0.2,0.4 0.4,0.6 0.2,0.3 0.5,0.6 0.8,0.8 0.3,0.2 0.6,0.5 0.8,0.9 0.1,0.2 0.3,0.4 0.5,0.6 0.2,0.1 0.4,0.3 0.5,0.5 0.4,0.5 0.7,1.1 1,1.7 0.3,0.6 0.6,1.1 1.1,1.6 h 0.2 c 0.2,-0.5 0.5,-0.9 0.8,-1.3 0.3,-0.4 0.6,-0.7 0.9,-1.1 0.7,-0.9 1.4,-1.9 2.1,-2.8 0.7,-0.9 1.5,-1.8 2.3,-2.6 0.1,-0.1 0.3,-0.3 0.5,-0.6 0.2,-0.3 0.4,-0.5 0.6,-0.8 0.2,-0.3 0.4,-0.5 0.6,-0.7 0.2,-0.2 0.4,-0.3 0.6,-0.3 0.3,0 0.5,0.1 0.7,0.2 0.2,0.1 0.4,0.2 0.6,0.3 0.3,0.1 0.6,0.3 0.8,0.4 0.2,0.1 0.4,0.3 0.6,0.6 0.1,0.1 0.1,0.2 0.2,0.3 0.1,0.3 0.2,0.4 0.2,0.5 z"
   id="path42" />
</g><g
     id="g48"
     transform="rotate(90,148.25,-56.95)"
     style="stroke:#ffffff;stroke-opacity:1">
	<path
   class="text"
   d="m 223.7,78.1 c 0,0.3 0,0.5 -0.1,0.7 -0.1,0.2 -0.1,0.4 -0.1,0.7 0,0.4 -0.1,0.8 -0.3,1.2 -0.2,0.3 -0.4,0.7 -0.4,1.1 -0.2,0.9 -0.5,1.5 -0.8,2.1 -0.3,0.5 -0.7,1.2 -1.1,1.9 -0.1,0.1 -0.1,0.3 -0.1,0.4 0,0.1 0,0.3 -0.1,0.4 -0.1,0.3 -0.3,0.6 -0.5,0.8 -0.2,0.2 -0.4,0.5 -0.6,0.7 -0.5,0.6 -1,1.1 -1.5,1.6 -0.5,0.4 -1.2,0.7 -2.1,0.7 -0.1,0 -0.1,0 -0.2,-0.1 0,0 -0.1,-0.1 -0.2,-0.1 -0.4,0 -0.7,0.1 -1.1,0.3 -0.4,0.2 -0.7,0.3 -1.1,0.3 -0.4,0 -0.8,-0.1 -1.1,-0.4 -0.3,-0.2 -0.6,-0.5 -0.8,-0.8 -0.4,-0.5 -0.8,-0.9 -1.2,-1.4 -0.4,-0.4 -0.8,-0.9 -1.2,-1.4 -0.5,-0.6 -0.9,-1.1 -1.4,-1.5 -0.5,-0.4 -0.9,-1 -1.2,-1.7 -0.1,-0.3 -0.3,-0.5 -0.5,-0.7 -0.2,-0.2 -0.3,-0.5 -0.3,-0.8 V 81 c 0,-0.6 0.1,-1 0.2,-1.4 0.1,-0.4 0.3,-0.8 0.5,-1.3 0.2,-0.5 0.4,-0.9 0.4,-1.4 0.1,-0.4 0.3,-0.9 0.6,-1.3 0.3,-0.5 0.8,-0.9 1.4,-1.2 0.6,-0.4 1,-0.7 1.2,-1.1 0.1,-0.1 0.1,-0.2 0.1,-0.3 0,-0.1 0,-0.2 0.1,-0.3 0.3,-0.4 0.7,-0.7 1.3,-1 0.6,-0.3 1.1,-0.6 1.5,-0.9 0.7,-0.6 1.4,-1.1 2.1,-1.6 0.7,-0.4 1.5,-0.7 2.5,-0.7 1.1,0 2,0.3 2.7,0.9 0.7,0.6 1.3,1.4 1.7,2.3 0.3,0.5 0.6,1 0.9,1.4 0.3,0.4 0.4,1 0.4,1.6 v 0.9 c 0,0.5 0.1,0.9 0.2,1.3 0.2,0.3 0.2,0.7 0.2,1.2 z"
   id="path46"
   style="stroke:#ffffff;stroke-opacity:1" />
</g><path
     class="st0"
     d="M 20.8,25.3 C 40.4,70.8 87.1,140.8 87.3,197"
     id="path50"
     style="stroke:#ffffff;stroke-opacity:1" /><path
     class="st1"
     d="M 86.5,210 C 80.1,266.2 36.9,328 26.7,286.4"
     id="path52"
     style="stroke:#ffffff;stroke-opacity:1" /><path
     class="st2"
     d="M 24.9,273.4 C 22.3,228.9 63.5,234 73.8,303.5"
     id="path54"
     style="stroke:#ffffff;stroke-opacity:1" /><path
     class="st3"
     d="m 75.5,316.7 c 8.2,72.1 11.6,150.7 -10,173.6"
     id="path56"
     style="stroke:#ffffff;stroke-opacity:1" /><path
     class="st4"
     d="m 17.9,18.2 c 0.4,1 0.8,2 1.2,3.1 m 68.2,177.9 c 0,1.1 -0.1,2.2 -0.1,3.3 -0.1,1.1 -0.1,2.1 -0.2,3.2 m -60.7,78.6 c -0.2,-1 -0.4,-2.1 -0.6,-3.2 -0.2,-1.1 -0.3,-2.2 -0.4,-3.3 m 48.9,27.9 c 0.1,1.1 0.3,2.2 0.4,3.3 0.1,1.1 0.3,2.2 0.4,3.3 M 63.9,491.9 c -0.9,0.8 -1.7,1.4 -2.7,2"
     id="path58"
     style="stroke:#ffffff;stroke-opacity:1" /></g>
</svg>
